<svg id="b0ca0406-6f4c-4cfb-808f-f36671dfccf1" data-name="Layer 1" xmlns="http://www.w3.org/2000/svg" xmlns:xlink="http://www.w3.org/1999/xlink" viewBox="0 0 728.86 537.58"><defs><linearGradient id="a2bf385a-858e-42f2-af5d-b1c1806bfe85" x1="118.69" y1="59.17" x2="118.69" y2="84.6" gradientTransform="matrix(1, 0, 0, -1, 0, 518.47)" gradientUnits="userSpaceOnUse"><stop offset="0" stop-color="#98d0e1"/><stop offset="1"/></linearGradient><linearGradient id="add919f3-bb16-4361-9b0b-e62b9339174d" x1="112.74" y1="50.62" x2="119.39" y2="50.62" xlink:href="#a2bf385a-858e-42f2-af5d-b1c1806bfe85"/><linearGradient id="e98fee2c-d158-43d2-9169-a27a4b7cc5fb" x1="112.74" y1="49.46" x2="119.39" y2="49.46" xlink:href="#a2bf385a-858e-42f2-af5d-b1c1806bfe85"/><linearGradient id="f314e26b-73f0-465d-a602-078e77423d40" x1="112.74" y1="46.76" x2="119.39" y2="46.76" xlink:href="#a2bf385a-858e-42f2-af5d-b1c1806bfe85"/><linearGradient id="a1f4b52f-f72e-40f3-92e9-1183142ca6e4" x1="112.74" y1="45.6" x2="119.39" y2="45.6" xlink:href="#a2bf385a-858e-42f2-af5d-b1c1806bfe85"/><linearGradient id="b8f028ba-edb9-4ba1-8f55-453952be3fe4" x1="112.74" y1="42.87" x2="119.39" y2="42.87" xlink:href="#a2bf385a-858e-42f2-af5d-b1c1806bfe85"/><linearGradient id="ef256ad1-e213-47c7-b952-30ae14b0ea87" x1="112.74" y1="41.71" x2="119.39" y2="41.71" xlink:href="#a2bf385a-858e-42f2-af5d-b1c1806bfe85"/><linearGradient id="ab9beeef-8ece-4d0f-8ff9-6bdb47909ccf" x1="112.74" y1="39.03" x2="119.39" y2="39.03" xlink:href="#a2bf385a-858e-42f2-af5d-b1c1806bfe85"/><linearGradient id="b9a471be-11c8-4fa6-bbb0-5ad52c2130d3" x1="112.74" y1="37.88" x2="119.39" y2="37.88" xlink:href="#a2bf385a-858e-42f2-af5d-b1c1806bfe85"/><linearGradient id="f8016f59-dc85-40fb-950b-9d98829b6ba9" x1="117.9" y1="50.89" x2="117.9" y2="77.23" gradientTransform="matrix(1, 0, 0, -1, 0, 518.47)" gradientUnits="userSpaceOnUse"><stop offset="0.29" stop-color="#98d0e1"/><stop offset="1"/></linearGradient><linearGradient id="abe016a5-e090-40e5-bbc2-c093fe986b37" x1="105.1" y1="58.27" x2="105.1" y2="84.6" xlink:href="#a2bf385a-858e-42f2-af5d-b1c1806bfe85"/><linearGradient id="a1e08ae3-ab07-4917-883b-d469cef3bcfc" x1="104.31" y1="50.89" x2="104.31" y2="76.32" xlink:href="#a2bf385a-858e-42f2-af5d-b1c1806bfe85"/><linearGradient id="b11e9b55-194e-4e75-adcc-f1bdde97d1fc" x1="245.75" y1="53.24" x2="245.75" y2="78.67" xlink:href="#a2bf385a-858e-42f2-af5d-b1c1806bfe85"/><linearGradient id="bdb0761b-b5fc-445a-bb15-3b5d8a4717fc" x1="239.8" y1="44.66" x2="246.45" y2="44.66" xlink:href="#a2bf385a-858e-42f2-af5d-b1c1806bfe85"/><linearGradient id="f13dac58-af76-45d0-bc35-6da883b78448" x1="239.8" y1="43.5" x2="246.45" y2="43.5" xlink:href="#a2bf385a-858e-42f2-af5d-b1c1806bfe85"/><linearGradient id="a5b3b4f6-2e56-4db5-b816-781aaa433b3a" x1="239.8" y1="40.79" x2="246.45" y2="40.79" xlink:href="#a2bf385a-858e-42f2-af5d-b1c1806bfe85"/><linearGradient id="b893c929-051b-4059-857e-babf44ca15f2" x1="239.8" y1="39.63" x2="246.45" y2="39.63" xlink:href="#a2bf385a-858e-42f2-af5d-b1c1806bfe85"/><linearGradient id="b169f3d6-d1a9-4d11-af48-b738c55f42d3" x1="239.8" y1="36.9" x2="246.45" y2="36.9" xlink:href="#a2bf385a-858e-42f2-af5d-b1c1806bfe85"/><linearGradient id="a5278d1f-db24-4864-a5b3-6acd08c2d716" x1="239.8" y1="35.74" x2="246.45" y2="35.74" xlink:href="#a2bf385a-858e-42f2-af5d-b1c1806bfe85"/><linearGradient id="e88bfc81-e309-4664-9193-2afa625d05e6" x1="239.8" y1="33.06" x2="246.45" y2="33.06" xlink:href="#a2bf385a-858e-42f2-af5d-b1c1806bfe85"/><linearGradient id="fea20cb0-c4d3-4a70-bd2c-1e4f0188f75d" x1="239.8" y1="31.91" x2="246.45" y2="31.91" xlink:href="#a2bf385a-858e-42f2-af5d-b1c1806bfe85"/><linearGradient id="e28eefd0-fa8c-445b-9f04-112ae2707674" x1="244.96" y1="44.96" x2="244.96" y2="71.29" xlink:href="#f8016f59-dc85-40fb-950b-9d98829b6ba9"/><linearGradient id="b9b73d2d-f3df-4037-a9a7-c04ce390e791" x1="232.17" y1="52.33" x2="232.17" y2="78.67" xlink:href="#a2bf385a-858e-42f2-af5d-b1c1806bfe85"/><linearGradient id="bb1500cc-b47d-45dc-9a68-4d87005e08dc" x1="231.38" y1="44.96" x2="231.38" y2="70.39" xlink:href="#a2bf385a-858e-42f2-af5d-b1c1806bfe85"/></defs><g id="eae63119-f253-4ad9-85af-650173c14159" data-name="be970980-f405-4368-9da9-f621ebab2db1"><polygon points="185.89 348.06 182.16 346.99 182.16 350.64 185.89 348.06" style="fill:#22b573;opacity:0.10000000149011612;isolation:isolate"/><path d="M257.74,242.7,204.1,212.32a11.62,11.62,0,0,1-5.88-10.08V111h.25v91.2a11.36,11.36,0,0,0,5.75,9.86l53.64,30.38Z" transform="translate(0 167.65)" style="fill:#070b3b"/><path d="M176.33,325l-.12-.21,34.21-19.72a11.33,11.33,0,0,0,0-19.64L147.32,249a11.58,11.58,0,0,1,0-20.05L179,210.55a11.33,11.33,0,0,0,5.64-9.79V110.49h.25v90.27a11.61,11.61,0,0,1-5.77,10l-31.68,18.43a11.33,11.33,0,0,0,0,19.62l63.1,36.38a11.59,11.59,0,0,1,0,20.08Z" transform="translate(0 167.65)" style="fill:#070b3b"/><path d="M81,257.41l-.13-.21,80.72-47a11.37,11.37,0,0,0,5.63-9.79V107.73h.25v92.68a11.62,11.62,0,0,1-5.75,10Z" transform="translate(0 167.65)" style="fill:#070b3b"/><path d="M246.27,63.34A52.92,52.92,0,0,0,144.69,56.5,19.71,19.71,0,0,0,119,78.64a26.68,26.68,0,0,0-5.35-.54,26.32,26.32,0,0,0,0,52.63H245.52a33.7,33.7,0,0,0,.75-67.39Z" transform="translate(0 167.65)" style="fill:#a8e3f7;opacity:0.8600000143051147;isolation:isolate"/><path d="M106,106.59c0-12,7.43-21,18.93-21h.79a21.44,21.44,0,0,0-7.63,42.2l.5.08C110.16,125.12,106,116.26,106,106.59Z" transform="translate(0 167.65)" style="fill:#4aa4c2;opacity:0.5;isolation:isolate"/><path d="M263,94.3c0-15-6.28-27.3-30.38-27.11-2.36-22.63-19.13-39.55-39.89-39.55-14.18,0-27.09,10.72-35,21.29a43,43,0,0,1,73.82,20,27.38,27.38,0,0,1,20.33,45C257.81,109,263,102.63,263,94.3Z" transform="translate(0 167.65)" style="fill:#4aa4c2;opacity:0.5;isolation:isolate"/><g style="opacity:0.5"><path d="M145.35,59.82a19.09,19.09,0,0,0-2.4-.18c-5,0-10.56,2.45-13.36,7a20.42,20.42,0,0,0-2.2,15.5c.06,0,.53.74.59.76a36.57,36.57,0,0,1-.45-4.18C127.53,68.41,135.48,60,145.35,59.82Z" transform="translate(0 167.65)" style="fill:#fff;opacity:0.5;isolation:isolate"/></g><path d="M176.1,114.27s-12.29-15.42-4-31.87,26.52-22.18,46.13-9.79c0,0-29.1-11.21-39.87,9.37S176.1,114.27,176.1,114.27Z" transform="translate(0 167.65)" style="fill:#4aa4c2;opacity:0.5;isolation:isolate"/><polygon points="181.35 516.03 181.29 515.99 65.47 449.21 65.6 449 181.35 515.74 291.45 452.34 291.57 452.56 181.35 516.03" style="fill:#070b3b"/><polygon points="126.76 305.04 126.39 304.47 126.6 304.33 126.77 304.6 126.97 304.34 127.17 304.49 126.76 305.04" style="fill:#070b3b"/><path d="M127.76,136l-.2-.14.6-.8.2.15Zm1.2-1.59-.2-.15.59-.8.2.15Zm1.19-1.6-.2-.15.6-.8.2.15Zm1.2-1.6-.2-.15.59-.8.2.15Zm1.19-1.59-.2-.15.6-.8.2.15Zm1.19-1.6-.2-.15.6-.8.2.15Zm1.2-1.6-.2-.15.59-.8.21.15Zm1.19-1.6-.2-.15.6-.8.2.15Zm1.2-1.59-.2-.15.59-.8.2.15Zm1.19-1.6-.2-.15.6-.8.2.15Zm1.19-1.6-.2-.15.6-.8.2.15Zm1.2-1.6-.2-.15.6-.8.2.15Zm1.19-1.59-.2-.15.6-.8.2.15Zm1.2-1.6-.2-.15.59-.8.2.15Zm1.19-1.6-.2-.15.6-.8.2.15Zm1.19-1.6-.2-.15.6-.79.2.14Zm1.2-1.59-.2-.15.6-.8.2.15Zm1.19-1.6-.2-.15.6-.8.2.15Zm1.2-1.6-.2-.15.59-.8.2.15Zm1.19-1.6-.2-.15.6-.79.2.14Zm1.19-1.59-.2-.15.6-.8.2.15Zm1.2-1.6-.2-.15.6-.8.2.15Zm1.19-1.6-.2-.15.6-.8.2.15Zm1.2-1.6-.2-.15.59-.79.2.14Zm1.19-1.59-.2-.15.6-.8.2.15Zm1.19-1.6-.2-.15.6-.8.2.15Zm1.2-1.6-.2-.15.6-.8.2.15Zm1.19-1.6-.2-.15.6-.79.2.15Zm1.21-1.56-.18-.17.68-.73.18.17Zm1.37-1.46-.19-.17.69-.72.18.17Zm1.36-1.45-.18-.17.68-.73.19.17ZM165.31,87l-.18-.17.68-.73.18.17Zm1.37-1.46-.19-.17.69-.72.18.17ZM168,84.08l-.18-.17.68-.73.18.17Zm1.37-1.45-.19-.17.69-.73.18.17Zm1.36-1.46-.18-.17.68-.72.19.17Zm1.37-1.45-.18-.17.68-.73.18.18Zm1.37-1.45-.19-.17.69-.73.18.17Zm1.36-1.45-.18-.18.68-.72.18.17Zm1.37-1.46-.19-.17.69-.73.18.18Zm1.36-1.45-.18-.17.68-.73.19.17ZM179,72.46l-.18-.17.68-.73.18.17ZM180.34,71l-.19-.17.69-.72.18.17Zm1.36-1.45-.18-.17.68-.73.18.17Zm1.37-1.45-.18-.17.68-.73.18.17Zm1.36-1.46-.18-.17.68-.72.19.17Zm1.37-1.45-.18-.17.68-.73.18.17Zm1.37-1.45-.19-.17.69-.73.18.17Zm1.36-1.46-.18-.17.68-.72.18.17Zm1.37-1.45-.18-.17.68-.73.18.17Zm1.36-1.45-.18-.17.68-.73.19.17Zm1.37-1.45-.18-.18.68-.72.18.17ZM194,56.47l-.19-.17.69-.72.18.17ZM195.36,55l-.18-.17.68-.73.19.17Zm1.37-1.45-.18-.17.68-.73.18.17Z" transform="translate(0 167.65)" style="fill:#4aa4c2"/><polygon points="198.09 219.76 197.91 219.59 198.12 219.37 197.83 219.26 197.92 219.03 198.57 219.26 198.09 219.76" style="fill:#070b3b"/><path d="M196.89,51.28,196,51l.08-.24.94.34ZM195,50.62l-.94-.34.08-.23.94.33ZM193.1,50l-.94-.33.09-.24.94.33Zm-1.88-.67-.94-.33.08-.24.94.34Zm-1.88-.66-.94-.34.08-.23.94.33ZM187.45,48l-.94-.33.08-.24.95.33Zm-1.88-.67-.94-.33.08-.23.94.33Zm-1.88-.66-.94-.34.08-.23.94.33ZM181.8,46l-.94-.33.09-.24.94.34Zm-1.88-.66L179,45l.08-.23.94.33Zm-1.82-.67-.94-.33.08-.24.86.36ZM176.21,44l-.94-.33.08-.24,1,.34Zm-1.88-.66-.94-.34.08-.23.94.33Zm-1.88-.67-.94-.33.08-.24.94.34ZM170.56,42l-.94-.33.08-.23,1,.33Zm-1.88-.66-.94-.33.08-.24.94.33Zm-1.88-.67-1-.33.09-.24.94.34ZM164.91,40l-.94-.34.08-.23.95.33ZM163,39.29l-.94-.33.08-.24.94.33Zm-1.93-.67-.95-.33.09-.23.94.33ZM159.21,38l-.94-.34.08-.23,1,.33Zm-1.88-.67-.94-.33.08-.24.94.34Zm-1.88-.67-1-.33.09-.23.94.33ZM153.56,36l-.94-.33.08-.24,1,.33Zm-1.88-.67-.94-.33.08-.24.94.34Zm-1.88-.66-1-.34.09-.23.94.33ZM147.91,34l-.94-.33.13-.22,1,.33ZM146,33.29l-.94-.33.08-.23.94.33Zm-1.88-.66-1-.34.09-.23.94.33ZM142.26,32l-.94-.33.08-.24.95.34Z" transform="translate(0 167.65)" style="fill:#070b3b"/><polygon points="139.69 199.1 139.52 198.93 139.93 198.52 140.47 198.71 140.39 198.95 139.99 198.81 139.69 199.1" style="fill:#070b3b"/><path d="M91,80.31l-.17-.17.69-.7.18.18Zm1.4-1.39-.18-.18.7-.7.17.18Zm1.39-1.4-.18-.17.7-.7.17.18Zm1.39-1.39L95,76l.7-.7.18.18Zm1.39-1.4-.17-.18.69-.69.18.17Zm1.4-1.4-.18-.17.7-.7.17.18Zm1.39-1.39-.18-.18.7-.7.18.18Zm1.39-1.4-.18-.17.7-.7.18.17Zm1.39-1.39-.17-.18.69-.7.18.18Zm1.4-1.4-.18-.18.7-.69.17.17Zm1.39-1.4-.18-.17.7-.7.18.18ZM106.27,65l-.17-.18.69-.7.18.18Zm1.39-1.4-.17-.17.69-.7.18.17Zm1.4-1.39-.18-.18.7-.7.17.18Zm1.39-1.4-.18-.18.7-.69.18.17Zm1.39-1.4-.17-.17.69-.7.18.18Zm1.4-1.39-.18-.18.69-.7.18.18Zm1.39-1.4-.18-.17.7-.7.17.17ZM116,55.19l-.18-.18.7-.7.18.18Zm1.39-1.4-.17-.18.69-.69.18.17Zm1.4-1.4-.18-.17.69-.7.18.18ZM120.2,51l-.18-.18.7-.7.17.18Zm1.39-1.4-.18-.17.7-.7.18.17ZM123,48.21l-.17-.18.69-.7.18.18Zm1.4-1.4-.18-.18.7-.69.17.17Zm1.39-1.4-.18-.17.7-.7.17.18ZM127.16,44l-.18-.18.7-.7.18.18Zm1.39-1.4-.17-.18.69-.69.18.17Zm1.4-1.39-.18-.18.7-.7.17.18Zm1.39-1.4-.18-.18.7-.69.18.17Zm1.39-1.4-.18-.17.7-.7.18.18ZM134.1,37l-.17-.18.69-.7.18.18Zm1.4-1.4-.18-.18.7-.69.17.17Zm1.39-1.39-.18-.18.7-.7.18.18Zm1.39-1.4-.17-.18.69-.7.18.18Z" transform="translate(0 167.65)" style="fill:#070b3b"/><polygon points="89.99 249.41 89.66 248.91 90.08 248.49 90.26 248.66 89.98 248.94 90.2 249.28 89.99 249.41" style="fill:#070b3b"/><path d="M125.84,136l-.54-.82.21-.14.54.82Zm-1.08-1.59-.55-.83.21-.13.55.82Zm-1.09-1.65-.54-.82.21-.14.54.82Zm-1.09-1.64-.54-.82.21-.14.54.82Zm-1.08-1.71-.55-.83.21-.13.55.82Zm-1.09-1.65-.54-.82.21-.14.54.82Zm-1.09-1.64-.54-.82.21-.14.54.82Zm-1.08-1.64-.55-.83.21-.13.55.82Zm-1.09-1.65-.54-.82.21-.14.54.82Zm-1.05-1.62-.54-.82.21-.14.54.82ZM115,119.56l-.55-.82.21-.14.55.83Zm-1.09-1.64-.54-.82.21-.14.54.82Zm-1.09-1.64-.54-.82.21-.14.54.82Zm-1.08-1.65-.54-.82.2-.14.55.83ZM110.67,113l-.54-.82.21-.14.54.82Zm-1.08-1.64-.55-.82.21-.14.54.82Zm-1.09-1.65-.54-.82.2-.14.55.83Zm-1.09-1.64-.54-.82.21-.14.54.82Zm-1.12-1.65-.55-.82.21-.14.54.82Zm-1.09-1.65-.54-.82.2-.14.55.83Zm-1.1-1.63-.54-.82.21-.14.54.82ZM103,101.49l-.55-.83.21-.13.54.82Zm-1.09-1.65-.54-.82.2-.14.55.83Zm-1.09-1.64-.54-.82.21-.14.54.82Zm-1.08-1.64-.55-.83.21-.13.54.82Zm-1.09-1.65-.54-.82.2-.14.55.82Zm-1.09-1.64-.48-.86.21-.14.54.82ZM96.5,91.63,96,90.8l.21-.13.55.82ZM95.41,90l-.54-.82.21-.14.54.82Zm-1.09-1.64-.54-.82.21-.14.54.82ZM93.24,86.7l-.55-.83.21-.13.55.82Zm-1.09-1.65-.54-.82.21-.14.54.82ZM91.1,83.41l-.54-.82.21-.14.54.82Z" transform="translate(0 167.65)" style="fill:#070b3b"/><polygon points="160.74 259.58 160.54 259.43 160.9 258.94 161.43 259.24 161.31 259.46 160.97 259.27 160.74 259.58" style="fill:#070b3b"/><path d="M229.54,130.61l-.87-.5.12-.22.88.5Zm-1.75-1-.87-.49.12-.22.88.5Zm-1.75-1-.87-.5.12-.22.88.5Zm-1.75-1-.87-.49.12-.22.88.5Zm-1.75-1-.87-.5.12-.22.88.5Zm-1.75-1-.87-.49.12-.22.88.5Zm-1.74-1-.88-.5.12-.22.88.5Zm-1.75-1-.88-.49.12-.22.88.5Zm-1.75-1-.88-.5.13-.22.87.5Zm-1.75-1-.88-.49.13-.22.87.5Zm-1.75-1-.88-.5.13-.22.87.5Zm-1.75-1-.88-.49.13-.22.87.5Zm-1.75-1-.88-.5.13-.22.87.5Zm-1.75-1-.88-.5.13-.22.87.5Zm-1.75-1-.88-.5.13-.21.87.49Zm-1.75-1-.88-.5.13-.22.87.5Zm-1.75-1-.87-.5.12-.21.87.49Zm-1.75-1-.87-.5.12-.22.87.5Zm-1.75-1-.87-.5.12-.21.87.49Zm-1.75-1-.87-.5.12-.22.88.5Zm-1.75-1-.87-.5.12-.21.88.49Zm-1.75-1-.87-.5.12-.22.88.5Zm-1.75-1-.87-.5.12-.21.88.49Zm-1.75-1-.87-.5.12-.22.88.5Zm-1.75-1-.87-.5.12-.21.88.49Zm-1.75-1-.87-.5.12-.22.88.5Zm-1.75-1-.87-.49.12-.22.88.49Zm-1.75-1-.87-.5.12-.22.88.5Zm-1.74-1-.88-.49.12-.22.88.5Zm-1.75-1-.88-.5.12-.22.88.5Zm-1.75-1-.88-.49.13-.22.87.5Zm-1.75-1-.88-.5.13-.22.87.5Zm-1.75-1-.88-.49.13-.22.87.5Zm-1.75-1-.88-.5.13-.22.87.5Zm-1.75-1-.88-.49.13-.22.87.5Zm-1.75-1-.88-.5.13-.22.87.5Zm-1.75-1-.88-.49.13-.22.87.5Zm-1.75-1-.87-.5.12-.22.87.5Zm-1.75-1-.87-.49.12-.22.87.5Z" transform="translate(0 167.65)" style="fill:#070b3b"/><polygon points="230.42 299.05 230.41 298.8 230.48 298.79 230.42 298.75 230.54 298.54 231.34 298.99 230.42 299.05" style="fill:#070b3b"/><path d="M128.28,137.21V137l1-.06v.25Zm2-.11v-.25l1-.06V137Zm2-.12v-.25l1-.06v.25Zm2-.11v-.25l1-.06v.25Zm2-.12v-.25l1-.05v.25Zm2-.11v-.23l1-.06v.25Zm2-.11v-.25l1-.06v.25Zm2-.12v-.25l1-.06v.25Zm2-.11v-.25l1-.06v.25Zm2-.12v-.25l1-.05v.25Zm2-.11v-.25l1-.06V136Zm2-.11v-.25l1-.06v.25Zm2-.12v-.25l1-.06v.25Zm2-.11v-.25l1-.06v.25Zm2-.12v-.25h1v.25Zm2-.11v-.25l1-.06v.22Zm2-.11v-.25l1-.06v.25Zm2-.12V135l1-.06v.25Zm2-.11v-.25l1-.06v.25Zm2-.12v-.25h1V135Zm2-.11v-.25l1-.06v.25Zm2-.11v-.25l1-.06v.25Zm2-.12v-.25h1v.25Zm2-.11v-.25l1-.06v.25Zm2-.12v-.25l1-.05v.25Zm2-.11v-.25l1-.06v.25Zm2-.11V134l1-.06v.25Zm2-.12v-.25l1,0v.25Zm2-.11v-.25l1-.06V134Zm2-.12v-.25l1-.05v.25Zm2-.11v-.25l1-.06v.25Zm2-.11v-.27l1-.06v.25Zm2-.12v-.25l1-.05v.25Zm2-.11v-.25l1-.06v.27Zm2-.12v-.25h1v.25Zm2-.11V133l1-.06v.25Zm2-.11v-.25l1-.06v.25Zm2-.12v-.25l1-.05v.25Zm2-.11v-.25l1-.06v.25Zm2-.12v-.25h1v.25Zm2-.11v-.24l1-.06v.25Zm2-.11v-.25l1-.06v.25Zm2-.12v-.25h1v.25Zm2-.11v-.25l1-.06v.25Zm2-.12v-.25l1-.05v.25Zm2-.11v-.25l1-.06V132Zm2-.11v-.25l1-.06v.25Zm2-.12v-.25l1,0v.25Zm2-.11v-.25l1-.06v.25Zm2-.12v-.25l1-.05v.25Zm2-.11v-.25l1-.06v.21Z" transform="translate(0 167.65)" style="fill:#070b3b"/><polygon points="126.51 304.96 126.97 304.34 127.17 304.49 127.03 304.68 127.26 304.67 127.27 304.92 126.51 304.96" style="fill:#070b3b"/><path d="M127.76,136.06l-.2-.15.58-.79.2.15Zm1.17-1.58-.2-.15.59-.79.2.15Zm1.18-1.58-.2-.15.59-.78.2.15Zm1.18-1.57-.2-.15.59-.79.2.15Zm1.18-1.58-.2-.15.59-.79.2.15Zm1.18-1.57-.2-.15.58-.79.21.15Zm1.17-1.58-.2-.15.59-.79.2.15ZM136,125l-.2-.15.59-.78.2.15Zm1.18-1.57-.2-.15.59-.79.2.15Zm1.18-1.58-.2-.15.59-.79.2.15Zm1.18-1.57-.2-.15.58-.79.2.15Zm1.17-1.58-.2-.15.59-.79.2.15Zm1.18-1.58-.2-.15.59-.78.2.15Zm1.18-1.57-.2-.15.59-.79.2.15Zm1.18-1.58-.2-.15.59-.79.2.15Zm1.18-1.57-.2-.15.58-.79.2.15Zm1.17-1.58-.2-.15.59-.79.2.15Zm1.18-1.58-.2-.15.59-.78.2.15Zm1.18-1.57-.2-.15.59-.79.2.15Zm1.14-1.58-.2-.15.59-.79.2.15Zm1.18-1.57-.18-.13.58-.79.2.15Zm1.17-1.58-.2-.15.59-.79.2.15Zm1.18-1.58-.2-.15.67-.82.2.15Zm1.18-1.57-.2-.15.59-.79.2.15ZM156,98.23l-.2-.15.59-.79.2.15Zm1.18-1.57-.2-.15.58-.79.2.15Zm1.17-1.58-.2-.15.59-.79.2.15Zm1.18-1.58-.2-.15.59-.78.2.15Z" transform="translate(0 167.65)" style="fill:#070b3b"/><polygon points="230.81 299.16 230.75 298.41 231 298.38 231.02 298.62 231.19 298.46 231.36 298.64 230.81 299.16" style="fill:#070b3b"/><path d="M232.1,130.29l-.17-.18.74-.7.17.19Zm1.47-1.39-.17-.18.74-.7.17.18Zm1.48-1.4-.17-.18.73-.7.18.18Zm1.47-1.39-.17-.19.74-.69.17.18Zm1.48-1.4-.17-.18.73-.7.18.18Zm1.47-1.4-.17-.18.74-.69.17.18Zm1.48-1.39-.17-.18.73-.7.18.18Zm1.47-1.4-.17-.18.74-.7.17.19Zm1.48-1.39-.17-.18.73-.7.18.18Zm1.47-1.4-.17-.18.74-.7.17.19Zm1.48-1.39-.17-.18.73-.7.18.18Zm1.47-1.4-.17-.18.74-.7.17.18Zm1.48-1.39-.17-.19.73-.69.17.18Zm1.47-1.4-.17-.18.74-.7.17.18Zm1.48-1.4-.18-.18.74-.69.17.18Zm1.47-1.39-.17-.18.74-.7.17.18Zm1.48-1.4-.18-.18.74-.7.17.19Zm1.47-1.39-.17-.18.74-.7.17.18Zm1.48-1.4-.18-.18.74-.7.17.19Zm1.47-1.39-.17-.18.74-.7.17.18Zm1.48-1.4-.18-.18.74-.7.17.18Zm1.47-1.39-.17-.19.74-.69.17.18Zm1.47-1.4-.17-.18.74-.7.17.18Zm1.48-1.4-.17-.18.74-.69.17.18Zm1.47-1.39-.17-.18.74-.7.17.18ZM269,95.4l-.17-.18.73-.7.18.19Z" transform="translate(0 167.65)" style="fill:#070b3b"/><polygon points="270.44 261.66 270.27 261.48 270.58 261.19 270.46 260.78 270.7 260.71 270.86 261.26 270.44 261.66" style="fill:#070b3b"/><path d="M270.19,92.17l-.27-1,.24-.07.27.95Zm-.54-1.91-.28-1,.24-.07.28,1Zm-.55-1.91-.27-.95.24-.07.27,1Zm-.54-1.9-.28-1,.24-.07.28,1ZM268,84.54l-.27-1,.24-.07.27,1Zm-.54-1.91-.27-1,.24-.07.27,1Zm-.55-1.91-.27-1,.24-.06.27,1Zm-.54-1.91-.27-1,.24-.06.27,1Zm-.55-1.91-.27-1,.24-.07.27,1ZM265.29,75,265,74l.24-.07.27,1Zm-.55-1.91-.27-1,.24-.07L265,73Zm-.54-1.91-.27-1,.24-.07.27,1Zm-.55-1.91-.27-1,.24-.07.27,1Zm-.55-1.85-.27-1,.24-.07.27,1Zm-.55-1.91-.27-1,.24-.07.27,1ZM262,63.59l-.27-1,.24-.07.27,1Zm-.55-1.91-.27-1,.24-.06.27,1Zm-.54-1.91-.27-1,.24-.07.27.95Zm-.55-1.91-.27-1,.24-.07.27,1ZM259.83,56l-.27-1,.24-.07.27,1ZM259.28,54,259,53l.24-.07.27,1Zm-.54-1.91-.27-1,.24-.07.27,1Z" transform="translate(0 167.65)" style="fill:#070b3b"/><polygon points="258.21 217.83 258.09 217.44 257.69 217.45 257.68 217.2 258.28 217.18 258.45 217.76 258.21 217.83" style="fill:#070b3b"/><path d="M199.85,51.74v-.25h1v.25Zm2-.07v-.26h1v.25Zm2-.07v-.25h1v.25Zm2-.06v-.25h1v.25Zm2-.07v-.25h1v.19Zm2-.07v-.25h1v.26Zm2-.06v-.25h1v.25Zm2-.07V51h1v.25Zm2-.07V51h1v.25Zm2-.06v-.25h1v.25Zm2-.07v-.25h1v.25Zm2-.07v-.25h1V51Zm2-.06v-.25h1v.25Zm2-.07v-.25h1v.25Zm2-.07v-.25h1v.25Zm2-.06v-.25h1v.25Zm2-.07v-.26h1v.25Zm2-.07v-.25h1v.25Zm2-.06v-.25h1v.25Zm2-.07v-.25h1v.19Zm2-.07v-.25h1v.26Zm2-.06v-.25h1v.25Zm2-.07V50h1v.25Zm2-.07V50h1v.25Zm2-.06v-.25h1v.25Zm2-.07v-.25h1v.25Zm2-.07v-.25h1V50Zm2-.06v-.25h1v.25Zm2-.07v-.25h1v.25Z" transform="translate(0 167.65)" style="fill:#070b3b"/><polygon points="198.58 219.77 198.08 219.2 198.84 219.17 198.85 219.42 198.61 219.43 198.77 219.61 198.58 219.77" style="fill:#070b3b"/><path d="M230.66,129.75l-.08-1h.25l.08,1Zm-.17-2-.08-1h.25l.08,1Zm-.17-2-.08-1h.25l.08,1Zm-.17-2-.08-1h.25l.08,1Zm-.16-2-.09-1h.25l.08,1Zm-.17-2-.09-1H230l.09,1Zm-.17-2-.09-1h.25l.09,1Zm-.17-2-.09-1h.25l.09,1Zm-.17-2-.09-1h.25l.09,1Zm-.17-2-.08-1h.24l.09,1Zm-.17-2-.08-1h.25l.08,1Zm-.17-2-.08-1H229l.08,1Zm-.17-2-.08-1h.25l.08,1Zm-.17-2-.08-1h.25l.08,1Zm-.17-2-.08-1h.25l.08,1Zm-.17-2-.08-1h.25l.08,1Zm-.16-2-.09-1h.25l.08,1Zm-.17-2-.09-1H228l.09,1Zm-.17-2-.09-1h.25l.09,1Zm-.17-2-.09-1h.25l.09,1Zm-.17-2-.09-1h.25l.09,1Zm-.17-2-.08-1h.24l.09,1Zm-.17-2-.08-1h.25l.08,1ZM226.33,84l-.66-.75.19-.17.66.76ZM225,82.41l-.66-.76.19-.16.66.75Zm-1.32-1.52-.66-.76.19-.16.66.76Zm-1.32-1.48-.66-.76.19-.16.66.75Zm-1.27-1.53-.66-.76.18-.16.67.76Zm-1.37-1.47-.67-.76.19-.17.66.76Zm-1.33-1.52-.66-.76.19-.16.66.76Zm-1.3-1.55-.66-.76.19-.17.66.76Zm-1.32-1.52-.66-.76.19-.16.66.76Zm-1.32-1.51-.66-.76.19-.17.66.76Zm-1.36-1.52-.66-.76.19-.16.66.76Zm-1.32-1.52-.66-.75.18-.17.66.76Zm-1.33-1.51-.66-.76.19-.16.66.76Zm-1.32-1.52-.66-.75.19-.17.66.76Zm-1.32-1.51-.66-.76.19-.16.66.75Zm-1.32-1.52-.66-.75.19-.17.66.76Zm-1.32-1.51-.66-.76.19-.16.66.75Zm-1.32-1.52-.66-.75.18-.17L204,58Zm-1.33-1.51-.66-.76.19-.16.66.75Zm-1.32-1.52-.66-.75.19-.17.66.76Zm-1.32-1.51-.66-.76.19-.16.66.75Z" transform="translate(0 167.65)" style="fill:#070b3b"/><rect x="270.36" y="93.28" width="0.25" height="0.5" transform="translate(124 507.05) rotate(-78.29)" style="fill:#070b3b"/><path d="M269.22,93.41l-1-.2,0-.25,1,.2Zm-2-.41-1-.2,0-.25,1,.21Zm-2-.41-1-.2,0-.25,1,.21Zm-2-.41-1-.2v-.25l1,.21Zm-2-.41-1-.2,0-.25,1,.21ZM160.84,91.6v-.25l1-.11v.25Zm-1-.14-1-.14v-.25l1,.14Zm3-.08v-.24l1-.11v.25Zm96.41,0-1-.2.05-.25,1,.21Zm-94.41-.19v-.25l1-.1v.25Zm-7,0-1-.14V90.8l1,.15Zm9-.21v-.25l1-.1v.25Zm90.44,0-1-.2.05-.25,1,.21Zm-101.45-.06-1-.14v-.25l1,.14Zm13-.14v-.25l1-.1v.25Zm-15-.15-1-.14v-.25l1,.15Zm101.47,0-1-.21,0-.24,1,.2Zm-84.47,0v-.25l1-.1v.24Zm2-.21v-.25l1-.11v.25Zm-21,0-1-.14V90l1,.14Zm101.5-.18-1-.21,0-.24,1,.2Zm-78.51,0V90l1-.11v.25Zm-25-.09-1-.14v-.25l1,.15Zm27-.12v-.25l1-.11v.25Zm-29-.16-1-.14v-.25l1,.14Zm103.51,0-1-.21,0-.24,1,.2Zm-72.55,0v-.24l1-.11v.25Zm2-.21v-.25l1-.1v.25Zm-35,0-1-.14v-.24l1,.14Zm103.53-.14-1-.21.05-.24,1,.2Zm-66.58,0v-.25l1-.1v.25Zm-38.94-.09-1-.14V89l1,.14Zm40.94-.12v-.25l1-.1v.25Zm62.61-.15-1-.21,0-.24,1,.2Zm-105.54,0-1-.15v-.24l1,.14Zm44.93,0v-.25l1-.1V89Zm2-.21v-.25l1-.11v.25Zm-48.92,0-1-.14v-.25l1,.14Zm105.56-.11-1-.21,0-.24,1,.2ZM191,88.41v-.25l1-.11v.25Zm-52.86-.1-1-.15v-.24l1,.14ZM193,88.2V88l1-.11v.25Zm50.68-.13-1-.2.05-.25,1,.21Zm-107.58,0-1-.14v-.25l1,.14Zm58.9,0v-.24l1-.11V88Zm2-.21v-.25l1-.1v.25Zm-62.89,0-1-.15v-.24l1,.14Zm107.6-.08-1-.2.05-.25,1,.21ZM199,87.68v-.25l1-.1v.25Zm-66.9-.27-1-.14V87l1,.14Zm68.87-.1v-.25l1-.1v.25Zm38.75-.1-1-.2.05-.25,1,.21Zm-109.62,0-1-.15v-.24l1,.14Zm72.86,0v-.25l1-.1v.24Zm2-.21v-.25l1-.11v.25Zm-76.86-.08-1-.14v-.25l1,.15Zm109.63,0-1-.2.05-.25,1,.21ZM207,86.76v-.25l1-.11v.25ZM126.1,86.6l-1-.14v-.25l1,.14Zm82.84-.09v-.25l1-.11v.25Zm26.81-.08-1-.2.05-.25,1,.21ZM124.1,86.31l-1-.14v-.25l1,.15Zm86.83,0v-.24l1-.11v.25Zm2-.21v-.25l1-.1V86Zm-90.82,0-1-.14v-.25l1,.14Zm111.66,0-1-.2,0-.25,1,.21ZM214.93,86V85.7l1-.1v.25Zm-94.83-.21-1-.14v-.25l1,.15Zm96.81-.08v-.25l1-.1v.25Zm14.88,0-1-.21.05-.24,1,.2ZM118.11,85.5l-1-.14v-.25l1,.14Zm100.8,0v-.25l1-.1v.24Zm2-.21V85l1-.11v.25Zm8.91,0-1-.21.05-.24,1,.2Zm-113.7,0-1-.14V84.9l1,.15Zm106.79-.14V84.9l1-.11V85ZM114.13,85l-1-.14v-.25l1,.14Zm110.77-.07v-.25l1-.11v.25Zm3,0-.93-.2h0v-.23H227l1,.2Zm-115.71-.2-1-.14v-.24l1,.14Zm-2-.28-1-.14v-.25l1,.14Zm-2-.28-1-.15v-.24l1,.14Zm-2-.29-1-.14V83.5l1,.14Zm-2-.28-1-.15v-.24l1,.14Zm-2-.29-1-.14v-.25l1,.14Zm-2-.28-1-.15v-.24l1,.14Zm-2-.29-1-.14v-.25l1,.15Zm-2-.28-1-.14v-.25l1,.14Zm-2-.29-1-.14v-.25l1,.15Zm-2-.28-1-.14v-.25l1,.14Z" transform="translate(0 167.65)" style="fill:#070b3b"/><rect x="89.94" y="81.06" width="0.25" height="0.5" transform="translate(-3.18 326.61) rotate(-81.86)" style="fill:#070b3b"/><rect x="160.73" y="90.97" width="0.25" height="0.5" transform="translate(-20.99 225.27) rotate(-19.09)" style="fill:#070b3b"/><path d="M160.33,90.08l-.33-1,.24-.08.32,1Zm-.66-1.89-.33-1,.24-.08.33,1ZM159,86.3l-.33-.94.24-.09.32,1Zm-.66-1.89-.33-.94.24-.09.33,1Zm-.65-1.89-.33-.94.23-.08.33.94Zm-.66-1.89-.33-.94.24-.08.33.94Zm-.66-1.89-.32-.94.23-.08.33.94Zm-.65-1.88-.33-1,.24-.08.33.94ZM155.08,75l-.32-1,.23-.08.33,1Zm-.65-1.89-.33-1,.24-.08.32,1Zm-.66-1.89-.33-.94.24-.09.33,1Zm-.65-1.89-.33-.94.24-.09.32,1Zm-.66-1.89-.33-.94.24-.08.33.94Zm-.65-1.89-.33-.94.23-.08.33.94Zm-.66-1.89-.33-.94.24-.08.33.94Zm-.66-1.88-.32-1,.23-.08.33.94Zm-.65-1.89-.33-1,.24-.08.32.94ZM149.18,58l-.32-1,.23-.08.33,1Zm-.65-1.89-.33-1,.24-.08.32,1Zm-.66-1.89-.33-.94.24-.09.33,1Zm-.65-1.89-.33-.94.23-.09.33,1Zm-.66-1.89-.33-.94.24-.08.33.94Zm-.65-1.89-.33-.94.23-.08.29.91Zm-.66-1.89-.33-.94.24-.08.33.94Zm-.66-1.88-.32-1,.23-.08.33.94Zm-.65-1.89-.33-1,.24-.08.32,1ZM143.28,41,143,40l.24-.08.33,1Zm-.65-1.89-.33-.94.24-.09.32,1ZM142,37.19l-.33-.94.24-.09.33,1Zm-.65-1.89-.33-.94.23-.08.33.94Zm-.66-1.89-.33-.94.24-.08.33.94Z" transform="translate(0 167.65)" style="fill:#070b3b"/><polygon points="140.01 199.17 139.8 198.58 140.39 198.38 140.47 198.62 140.12 198.74 140.24 199.09 140.01 199.17" style="fill:#070b3b"/><path d="M141.43,30.63l-.08-.23,1-.33.09.23Zm1.91-.66-.08-.23,1-.34.08.24Zm1.92-.66-.09-.24,1-.33.08.24Zm1.91-.66-.07-.24,1-.33.08.24Zm1.91-.67-.08-.23,1-.33.08.23Zm1.91-.66-.08-.23,1-.34L152,27Zm1.92-.66-.09-.24,1-.33.08.24Zm1.91-.66-.08-.24,1-.33.09.24Zm1.91-.67-.08-.23,1-.33.08.23Zm1.92-.66-.09-.23,1-.34.08.24Zm1.91-.66-.08-.24,1-.33.09.24Zm1.91-.66-.08-.24,1-.33.08.24Zm1.92-.67-.09-.27,1-.33.08.23ZM166.3,22l-.08-.23.95-.34.08.24Zm1.91-.66-.08-.24,1-.33.08.24Zm1.91-.66-.08-.24,1-.33.06.28ZM172,20,172,19.8l1-.33.08.23Zm1.91-.66-.08-.23,1-.34L175,19Zm1.91-.66-.08-.24,1-.33.08.24Zm1.92-.66-.09-.24,1-.33.08.24Zm1.91-.67-.08-.23.95-.33.09.23Zm1.91-.66-.08-.23,1-.34.08.24Zm1.91-.66-.08-.24,1-.33.08.24Zm1.92-.66-.08-.24,1-.33.08.24Zm1.91-.67-.08-.23,1-.33.09.23Zm1.91-.66-.08-.23,1-.34.08.24Zm1.92-.66-.09-.24,1-.33.08.24Zm1.91-.66-.08-.24,1-.33.09.24Zm1.91-.67-.08-.23,1-.33.08.23Zm1.92-.66-.09-.23,1-.34.08.24Zm1.91-.66-.08-.24.95-.33.08.24Zm1.91-.66-.08-.24,1-.33.08.24Zm1.91-.67-.08-.23,1-.33.08.23Zm1.92-.66-.09-.23,1-.34.08.24Zm1.91-.66-.08-.24,1-.33.09.24Z" transform="translate(0 167.65)" style="fill:#070b3b"/><polygon points="209.11 175.24 208.79 174.96 208.38 175.1 208.3 174.86 208.84 174.67 209.28 175.05 209.11 175.24" style="fill:#070b3b"/><path d="M257,48.78l-.75-.64.16-.19.75.65Zm-1.5-1.28-.74-.65.16-.19.75.65ZM254,46.21l-.75-.64.16-.19.75.64Zm-1.5-1.29-.75-.64.17-.19.74.64ZM251,43.63l-.75-.64.16-.19.75.65Zm-1.5-1.28-.75-.65.16-.19.75.65ZM248,41.06l-.74-.64.16-.19.75.64Zm-1.49-1.29-.75-.64.16-.19.75.64ZM245,38.48l-.75-.64.17-.19.75.65Zm-1.49-1.28-.75-.65.16-.19.75.65ZM242,35.91l-.75-.64.17-.19.74.64Zm-1.5-1.29-.74-.64.16-.19.75.64ZM239,33.33l-.75-.64.16-.19.75.65Zm-1.5-1.28-.75-.65.17-.19.75.65ZM236,30.76l-.75-.64.16-.19.75.64Zm-1.5-1.29-.75-.64.17-.19.74.64Zm-1.44-1.28-.75-.65.16-.19.75.65Zm-1.5-1.29-.75-.65.16-.19.75.65Zm-1.5-1.29-.74-.64.16-.19.75.64Zm-1.49-1.29-.75-.64.16-.19.75.64ZM227.1,23l-.75-.65.17-.19.74.65Zm-1.49-1.29-.75-.65.16-.19.75.65Zm-1.51-1.29-.75-.64.17-.19.74.64Zm-1.5-1.29-.74-.64.16-.19.75.64Zm-1.5-1.28-.75-.65.16-.19.75.65Zm-1.5-1.29-.75-.65.17-.19.75.65Zm-1.5-1.29-.75-.64.16-.19.75.64ZM216.6,14l-.75-.64.17-.19.74.64Zm-1.5-1.28-.74-.65.16-.19.75.65Zm-1.5-1.33-.75-.65.16-.19.75.65Zm-1.5-1.25-.74-.64.16-.19.75.64Zm-1.49-1.29-.75-.64L210,8l.75.64Z" transform="translate(0 167.65)" style="fill:#070b3b"/><rect x="257.88" y="49.27" width="0.25" height="0.5" transform="translate(52.16 380.41) rotate(-49.28)" style="fill:#070b3b"/><rect x="208.5" y="7.27" width="0.5" height="0.25" transform="translate(153.84 376.58) rotate(-76.79)" style="fill:#070b3b"/><path d="M198.81,50.24l-.24-.06.22-1,.25.06Zm.45-1.94H199l.23-1,.24.06Zm.46-1.93-.24-.06.22-1,.25.06Zm.45-1.93-.24-.06.23-1,.24.06Zm.46-1.94-.24-.06.22-1,.25.05Zm.45-1.93-.24-.06.23-1,.24.06Zm.46-1.94-.24-.06.22-1h.25ZM202,36.7l-.24-.06.23-1,.24.06Zm.46-1.94h-.24l.22-1,.25.06Zm.46-1.93-.25-.06.23-1,.24.06Zm.45-1.94h-.24l.22-1,.25.06Zm.46-1.93-.25-.06.23-1H204Zm.45-1.93L204,27l.23-1,.24.06Zm.46-1.94-.25-.06.23-1H205Zm.45-1.93-.24-.06.23-1,.24.06Zm.46-1.94-.25-.06.23-1h.24Zm.45-1.93-.24-.06.23-1,.24.06Zm.46-1.94h-.25l.23-1,.24.06Zm.45-1.94-.24-.06.23-1,.24.06Zm.46-1.94h-.25l.23-1,.24.06Zm.45-1.93-.24-.06.23-1,.24.06Zm.46-1.93-.25-.06.23-1,.24.06Z" transform="translate(0 167.65)" style="fill:#070b3b"/><rect x="198.14" y="51.29" width="0.5" height="0.25" transform="translate(102.66 400.27) rotate(-76.68)" style="fill:#070b3b"/><circle cx="160.94" cy="259.1" r="1.32" style="fill:#005486"/><path d="M272,93.57a1.32,1.32,0,1,1-1.32-1.32A1.32,1.32,0,0,1,272,93.57Z" transform="translate(0 167.65)" style="fill:#005486"/><circle cx="230.74" cy="298.89" r="1.32" style="fill:#005486"/><circle cx="226.96" cy="252.1" r="1.32" style="fill:#005486"/><circle cx="257.8" cy="217.31" r="1.32" style="fill:#005486"/><circle cx="198.35" cy="219.46" r="1.32" style="fill:#005486"/><circle cx="208.81" cy="174.83" r="1.32" style="fill:#005486"/><path d="M141.28,31A1.32,1.32,0,1,1,140,29.69,1.32,1.32,0,0,1,141.28,31Z" transform="translate(0 167.65)" style="fill:#005486"/><circle cx="89.82" cy="249.26" r="1.32" style="fill:#005486"/><circle cx="126.77" cy="304.82" r="1.32" style="fill:#061e43"/><rect x="146.43" y="248.65" width="29.03" height="19.82" style="fill:#ffd131"/><path d="M146.43,81l14.51,9.91L175.46,81Z" transform="translate(0 167.65)" style="fill:#061e43"/><path d="M152.78,28.53H137.34a2,2,0,0,0-2,2V40a2,2,0,0,0,2,2h9l5.87,5.7-.9-5.7h1.45a2,2,0,0,0,2-2V30.52A2,2,0,0,0,152.78,28.53Z" transform="translate(0 167.65)" style="fill:#061e43"/><path d="M144.34,34.66V28.53h-7a2,2,0,0,0-2,2v6.13h7A2,2,0,0,0,144.34,34.66Z" transform="translate(0 167.65)" style="fill:#032837;opacity:0.20000000298023224;isolation:isolate"/><path d="M125.76,22.1h15.45a2,2,0,0,1,2,2v9.43a2,2,0,0,1-2,2h-9l-5.87,5.71.9-5.71h-1.45a2,2,0,0,1-2-2V24.09A2,2,0,0,1,125.76,22.1Z" transform="translate(0 167.65)" style="fill:#ffd131"/><rect x="73.7" y="237.96" width="27.39" height="15.41" style="fill:#ffd131"/><rect x="73.7" y="253.16" width="27.39" height="3.98" style="fill:#506c75"/><rect x="78.61" y="254.71" width="21.08" height="0.7" style="fill:#eeefef"/><rect x="78.61" y="254.71" width="8.78" height="0.7" style="fill:#061e43"/><rect x="73.7" y="253.16" width="3.98" height="3.98" style="fill:#d1d1d0;opacity:0.699999988079071;isolation:isolate"/><rect x="75.01" y="254.36" width="0.51" height="1.4" style="fill:#061e43"/><rect x="75.74" y="254.36" width="0.51" height="1.4" style="fill:#061e43"/><polygon points="89.82 245.45 84.97 241.96 84.97 248.93 89.82 245.45" style="fill:#061e43"/><polygon points="248.66 213.71 269.13 213.71 268.86 225.86 248.9 225.86 248.66 213.71" style="fill:#be8f21"/><polygon points="251.61 200.03 251.61 219.53 266.62 219.53 266.62 204.54 266.62 204.54 266.62 203.98 262.67 200.03 251.61 200.03" style="fill:#ffd131"/><polygon points="262.68 200.03 262.68 203.98 266.62 203.98 266.62 203.98 262.68 200.03 262.68 200.03" style="fill:#061e43"/><rect x="256.86" y="205.98" width="6.92" height="0.26" style="fill:#edf9fe"/><rect x="254.45" y="207.84" width="9.33" height="0.26" style="fill:#edf9fe"/><rect x="254.45" y="209.7" width="9.33" height="0.26" style="fill:#edf9fe"/><rect x="254.45" y="211.56" width="9.33" height="0.26" style="fill:#edf9fe"/><rect x="254.45" y="213.42" width="9.33" height="0.26" style="fill:#edf9fe"/><polygon points="256.38 214.44 256.38 213.25 250.34 213.25 250.34 214.44 248.35 214.44 248.9 225.86 268.86 225.86 269.4 214.44 256.38 214.44" style="fill:#061e43"/><path d="M196.59,35.34a11,11,0,0,0-7.83,3.24l7.83,7.83Z" transform="translate(0 167.65)" style="fill:#061e43"/><path d="M197.74,38.58h0V49.66l-10.38-3.84a11,11,0,0,0-.7,3.84,11.08,11.08,0,1,0,11.08-11.08Z" transform="translate(0 167.65)" style="fill:#ffd131"/><path d="M189.36,40.71a11,11,0,0,0-2.55,4L197,48.47Z" transform="translate(0 167.65)" style="fill:#506c75;opacity:0.5;isolation:isolate"/><path d="M117.59,133.86h.5a9.26,9.26,0,0,1,.7-1.69l-.35-.36a2.6,2.6,0,0,1,3.68-3.68l.35.35a10.38,10.38,0,0,1,1.69-.7v-.49a2.61,2.61,0,1,1,5.21-.32,1.71,1.71,0,0,1,0,.32v.49a9.26,9.26,0,0,1,1.69.7l.35-.35a2.61,2.61,0,1,1,3.69,3.68l-.35.36a8,8,0,0,1,.7,1.69h.5a2.6,2.6,0,1,1,0,5.2h-.5a8.69,8.69,0,0,1-.7,1.7l.35.35a2.6,2.6,0,0,1-3.68,3.68l-.32-.38a9.26,9.26,0,0,1-1.69.7v.49a2.61,2.61,0,1,1-5.21.32v-.81a9.56,9.56,0,0,1-1.69-.7l-.35.35a2.6,2.6,0,1,1-3.68-3.68l.35-.35a9.35,9.35,0,0,1-.7-1.7h-.5a2.6,2.6,0,0,1,0-5.2Zm9.18,7.82a5.22,5.22,0,1,0-5.22-5.22,5.22,5.22,0,0,0,5.22,5.22Z" transform="translate(0 167.65)" style="fill:#ffd131"/><path d="M108,124.59h.24a4.66,4.66,0,0,1,.3-.73l-.17-.17a1.15,1.15,0,0,1,1.63-1.63l.17.16a5.21,5.21,0,0,1,.74-.3v-.24a1.15,1.15,0,0,1,2.3,0h0v.24a4.41,4.41,0,0,1,.74.3l.17-.16a1.15,1.15,0,0,1,1.63,1.63l-.17.17a3.34,3.34,0,0,1,.31.73h.22a1.16,1.16,0,0,1,.22,2.31h-.45a3.34,3.34,0,0,1-.31.73l.17.17a1.15,1.15,0,0,1-.15,1.62,1.16,1.16,0,0,1-1.48,0l-.17-.16a4.41,4.41,0,0,1-.74.3v.24a1.15,1.15,0,1,1-2.3,0v-.24a5.21,5.21,0,0,1-.74-.3l-.17.16a1.15,1.15,0,1,1-1.63-1.63l.17-.17a3.12,3.12,0,0,1-.3-.73H108a1.16,1.16,0,1,1-.21-2.31H108Zm4.06,3.47a2.32,2.32,0,1,0-2.31-2.33v0a2.31,2.31,0,0,0,2.31,2.31h0Z" transform="translate(0 167.65)" style="fill:#061e43"/><polygon points="259.15 267.59 260.49 267.42 261.28 267.32 260.53 261.41 258.4 261.68 259.15 267.59" style="fill:#ffd131"/><polygon points="264.69 266.89 266.03 266.72 266.82 266.62 266.2 261.73 264.07 262 264.69 266.89" style="fill:#ffd131"/><polygon points="270.23 266.19 271.57 266.02 272.36 265.92 271.13 256.14 269 256.41 270.23 266.19" style="fill:#ffd131"/><polygon points="275.78 265.49 277.12 265.32 277.91 265.22 276.22 251.91 274.09 252.18 275.78 265.49" style="fill:#ffd131"/><polygon points="281.32 264.79 282.66 264.62 283.45 264.52 282.07 253.61 279.94 253.88 281.32 264.79" style="fill:#ffd131"/><polygon points="285.99 267.42 256.27 271.18 254.18 254.7 254.76 254.63 256.77 270.53 285.92 266.84 285.99 267.42" style="fill:#061e43"/><polygon points="264.89 258.99 258.04 259.11 258.03 258.49 264.58 258.38 269.56 252.06 274.74 248.07 281.64 249.43 281.52 250.04 274.9 248.73 269.96 252.53 264.89 258.99" style="fill:#061e43"/><rect x="227.35" y="112.61" width="5.5" height="22.46" rx="1.04" transform="translate(64.48 493.62) rotate(-78.96)" style="fill:#ffd131"/><path d="M246.79,138.08A8.16,8.16,0,1,1,236.42,133a8.17,8.17,0,0,1,10.37,5.07Z" transform="translate(0 167.65)" style="fill:#061e43"/><path d="M240,131.65l.25-1.28a1,1,0,0,0-.73-1.21l-.1,0-20-3.9a1,1,0,0,0-1.2.74s0,.06,0,.09l-.66,3.34a1,1,0,0,0,.73,1.21l.1,0,15,2.93a8.92,8.92,0,0,1,6.61-1.92Z" transform="translate(0 167.65)" style="fill:#ffd131"/><path d="M232.75,134.14l-14.48-2.82a1,1,0,0,0-1.21.73s0,.06,0,.09l-.65,3.35a1,1,0,0,0,.74,1.2l.08,0,12.89,2.51A9.29,9.29,0,0,1,232.75,134.14Z" transform="translate(0 167.65)" style="fill:#ffd131"/><polygon points="239.51 312.59 236.99 311.36 237.09 312.45 238.61 313.19 239.51 312.59" style="fill:#fff"/><path d="M238.61,145.54l-1.52-.74.1,1a.36.36,0,0,0,.4.31.25.25,0,0,0,.15,0Z" transform="translate(0 167.65)" style="fill:#fff"/><polygon points="238.88 312.28 238.64 312.16 239.41 310.58 238.63 310.2 237.86 311.78 239.51 312.59 240.28 311 239.66 310.7 238.88 312.28" style="fill:#fff"/><rect x="236.79" y="142.7" width="1.76" height="0.69" transform="translate(4.81 461.44) rotate(-63.96)" style="fill:#fff"/><path d="M240,137.51l-.76,1.55,2.52,1.23.76-1.55Zm-.13,1.85.71-1.47.25.12-.72,1.47Zm1.27.62-.25-.12.72-1.46.24.11Z" transform="translate(0 167.65)" style="fill:#fff"/><rect x="238.53" y="310.03" height="0.27" style="fill:#a7a8ab"/><rect x="237.76" y="311.61" height="0.27" style="fill:#a7a8ab"/><rect x="239.56" y="310.53" height="0.27" style="fill:#a7a8ab"/><path d="M238.1,138.58a1.74,1.74,0,0,0-1.38-1.15l-1.67-.26-.16.33,1.83,1.08-.89,1.83-2-.78-.17.33,1.24,1.16a1.73,1.73,0,0,0,1.76.38l.61-.21,4.33,2.12a1.56,1.56,0,0,0,.69.7,1.5,1.5,0,1,0,1.31-2.7h0a1.44,1.44,0,0,0-1-.12l-4.31-2.1Zm5.83,4.11-.43.89-1,.06-.55-.81.44-.89,1-.07Z" transform="translate(0 167.65)" style="fill:#fff"/><path d="M242.67,138.46l-2.52-1.23.19-.38a1.4,1.4,0,0,1,1.86-.65h0a1.38,1.38,0,0,1,.66,1.85v0Z" transform="translate(0 167.65)" style="fill:#fff"/><rect x="222.67" y="119.45" width="5.5" height="6.9" transform="translate(61.62 488.26) rotate(-78.96)" style="fill:#071841;opacity:0.5;isolation:isolate"/><rect x="221.51" y="125.53" width="5.5" height="6.9" transform="translate(54.72 492.04) rotate(-78.96)" style="fill:#071841;opacity:0.5;isolation:isolate"/><rect x="220.33" y="131.63" width="5.5" height="6.9" transform="translate(47.78 495.81) rotate(-78.96)" style="fill:#071841;opacity:0.5;isolation:isolate"/><path d="M218,1.41H212.1L212,0H205.6l-.09,1.41h-2.13V.65H200.1v.76h-.51a1,1,0,0,0-1,1V13.34a1,1,0,0,0,1,1H218a1,1,0,0,0,1-1V2.41A1,1,0,0,0,218,1.41Z" transform="translate(0 167.65)" style="fill:#ffd131"/><path d="M213.56,8.5a4.75,4.75,0,1,1-4.76-4.74h0A4.75,4.75,0,0,1,213.56,8.5Z" transform="translate(0 167.65)" style="fill:#061e43"/><path d="M214.38,4.48a.89.89,0,1,1-1.77.19V4.48a.89.89,0,0,1,1-.79A.87.87,0,0,1,214.38,4.48Z" transform="translate(0 167.65)" style="fill:#506c75"/><path d="M226.54,72.87h0v-1a.06.06,0,0,0-.06-.06.06.06,0,0,0-.06.06v1h.12Z" transform="translate(0 167.65)" style="fill:#070b3b"/><path d="M224.71,72a0,0,0,0,0-.07,0s0,0,0,.07l.18,1h.12Z" transform="translate(0 167.65)" style="fill:#070b3b"/><path d="M222.9,72.46a.06.06,0,0,0-.12,0l.34.9h.11Z" transform="translate(0 167.65)" style="fill:#070b3b"/><path d="M231.94,91.41a.09.09,0,0,0,0-.07Z" transform="translate(0 167.65)" style="fill:#ffd131"/><path d="M221.19,73.22a.06.06,0,0,0-.08,0,.07.07,0,0,0,0,.06l.47.8.11-.06Z" transform="translate(0 167.65)" style="fill:#070b3b"/><path d="M233.4,90.41h0a0,0,0,0,0,0-.07h0l-.56-.65a.61.61,0,0,1-.07.1Z" transform="translate(0 167.65)" style="fill:#070b3b"/><path d="M219.65,74.26a.07.07,0,0,0-.09,0v.09l.6.7.1-.07Z" transform="translate(0 167.65)" style="fill:#070b3b"/><path d="M218.31,75.54a.06.06,0,0,0-.08,0,.05.05,0,0,0,0,.08h0l.74.6.08-.09Z" transform="translate(0 167.65)" style="fill:#070b3b"/><path d="M233.89,88.41l.84.68h.05a.06.06,0,0,0,0-.08l-.84-.68h0Z" transform="translate(0 167.65)" style="fill:#070b3b"/><path d="M235.82,87.61h0a.06.06,0,0,0,.06,0,.06.06,0,0,0,0-.08L235,87l-.07.11Z" transform="translate(0 167.65)" style="fill:#070b3b"/><path d="M217.23,77a.06.06,0,0,0-.08,0,.06.06,0,0,0,0,.07h0l.86.48.06-.1Z" transform="translate(0 167.65)" style="fill:#070b3b"/><path d="M236.62,86h0a0,0,0,0,0,0-.07h0l-1-.36a.37.37,0,0,1-.05.11Z" transform="translate(0 167.65)" style="fill:#070b3b"/><path d="M216.43,78.68a.06.06,0,1,0-.08.08l.93.33V79Z" transform="translate(0 167.65)" style="fill:#070b3b"/><path d="M215.93,80.41a0,0,0,0,0-.07,0s0,0,0,.07h0l1,.17v-.12Z" transform="translate(0 167.65)" style="fill:#070b3b"/><path d="M237.1,84.2h.06s0-.06,0-.07l-1-.18a.24.24,0,0,1,0,.12Z" transform="translate(0 167.65)" style="fill:#070b3b"/><path d="M215.76,82.26a.06.06,0,0,0-.06.06.05.05,0,0,0,0,.06h1v-.12Z" transform="translate(0 167.65)" style="fill:#070b3b"/><path d="M237.29,82.41a.06.06,0,1,0,0-.12h-1v.12Z" transform="translate(0 167.65)" style="fill:#070b3b"/><path d="M215.91,84.08s-.06,0,0,.07h.06l1-.17v-.12Z" transform="translate(0 167.65)" style="fill:#070b3b"/><path d="M237.1,80.56a.06.06,0,0,0,.06,0,0,0,0,0,0,0,0s0,0-.07,0l-1,.16v.12Z" transform="translate(0 167.65)" style="fill:#070b3b"/><path d="M236.66,78.8a.06.06,0,0,0,0-.08,0,0,0,0,0-.07,0l-1,.34v.11Z" transform="translate(0 167.65)" style="fill:#070b3b"/><path d="M216.39,85.85s0,0,0,.08h.06l1-.35v-.12Z" transform="translate(0 167.65)" style="fill:#070b3b"/><path d="M235.87,77.14a.06.06,0,0,0-.08-.08l-.88.49.06.11Z" transform="translate(0 167.65)" style="fill:#070b3b"/><path d="M217.17,87.51a.06.06,0,0,0,0,.07h.06l.93-.52a.36.36,0,0,1-.07-.1Z" transform="translate(0 167.65)" style="fill:#070b3b"/><path d="M234.81,75.64a.06.06,0,0,0-.09-.09l-.75.62.07.09Z" transform="translate(0 167.65)" style="fill:#070b3b"/><path d="M218.24,89a.06.06,0,0,0,0,.07h.06l.81-.68a.34.34,0,0,0-.08-.09Z" transform="translate(0 167.65)" style="fill:#070b3b"/><path d="M219.56,90.31a.06.06,0,0,0,0,.07h.06l.52-.61-.07-.11Z" transform="translate(0 167.65)" style="fill:#070b3b"/><path d="M233.49,74.34a.05.05,0,0,0,0-.08h0a.06.06,0,0,0-.08,0l-.62.72.09.07Z" transform="translate(0 167.65)" style="fill:#070b3b"/><path d="M221.1,91.41Z" transform="translate(0 167.65)" style="fill:#f05c4f"/><path d="M232,73.28a.06.06,0,0,0,0-.08.07.07,0,0,0-.09,0l-.48.81.11.06Z" transform="translate(0 167.65)" style="fill:#070b3b"/><path d="M230.26,72.5a.06.06,0,0,0,0-.08,0,0,0,0,0-.07,0l-.34.91H230Z" transform="translate(0 167.65)" style="fill:#070b3b"/><path d="M228.45,72s0-.06,0-.07h-.07l-.18,1h.12Z" transform="translate(0 167.65)" style="fill:#070b3b"/><path d="M226.5,97.1h0a6.82,6.82,0,0,0,2.83-1.22h-5.67A6.73,6.73,0,0,0,226.5,97.1Z" transform="translate(0 167.65)" style="fill:#ffd131"/><path d="M230.1,92.58H223a.18.18,0,1,0,0,.36h7.15a.18.18,0,0,0,0-.36Z" transform="translate(0 167.65)" style="fill:#061e43"/><path d="M230.1,93.41H223a.18.18,0,1,0,0,.36h7.15a.18.18,0,0,0,0-.36Z" transform="translate(0 167.65)" style="fill:#061e43"/><path d="M230.1,94.15H223a.21.21,0,0,0-.22.19.2.2,0,0,0,.22.18h7.15a.19.19,0,0,0,.21-.17h0a.19.19,0,0,0-.21-.19Z" transform="translate(0 167.65)" style="fill:#061e43"/><path d="M230.1,94.94H223a.2.2,0,0,0-.23.14.19.19,0,0,0,.15.23h7.23a.19.19,0,0,0,.09-.37Z" transform="translate(0 167.65)" style="fill:#061e43"/><path d="M226.53,74.76h0a7.54,7.54,0,0,0-7.68,7.17,7.76,7.76,0,0,0,1.83,5,8,8,0,0,1,2.19,4.68.9.9,0,0,0,.09.4h7.14a.9.9,0,0,0,.09-.4,8,8,0,0,1,2.19-4.68,7.76,7.76,0,0,0,1.83-5A7.54,7.54,0,0,0,226.53,74.76Z" transform="translate(0 167.65)" style="fill:#ffd131"/><path d="M226.23,92H226c0-.2.15-4.85-1.3-6.64l-.25-.31.59.26.54-.69.4.71.5-.83.5.7.25-.69.31.6.39-.63.89.38-.15.1c-1.88,1.31-1.73,6.8-1.72,7h-.19c0-.58-.13-5.59,1.67-7.08l-.42-.18-.48.78L227.3,85l-.23.62-.54-.76-.52.86-.42-.74-.45.58h0C226.37,87.53,226.24,91.8,226.23,92Z" transform="translate(0 167.65)" style="fill:#061e43"/><path d="M179,368.24l1.63.94a5.59,5.59,0,0,0,5.57,0l6.27-3.61a5,5,0,0,0,0-8.63l-2.58-1.49a5.49,5.49,0,0,0-5.46,0L179,358.58a5.69,5.69,0,0,0-1.65,7.81A9.32,9.32,0,0,0,179,368.24Z" transform="translate(0 167.65)" style="fill:#b5e3df;opacity:0.5400000214576721;isolation:isolate"/><path d="M292.84,330.49l-1.63.95a5.58,5.58,0,0,1-5.56,0l-6.27-3.61a5,5,0,0,1,0-8.63l2.58-1.49a5.49,5.49,0,0,1,5.46,0l5.43,3.13a5.56,5.56,0,0,1,0,9.65Z" transform="translate(0 167.65)" style="fill:#b5e3df;opacity:0.5400000214576721;isolation:isolate"/><path d="M89.1,252.15l-1.64.94a5.53,5.53,0,0,1-5.56,0l-6.27-3.61a5,5,0,0,1,0-8.63l2.58-1.49a5.49,5.49,0,0,1,5.46,0l5.43,3.13a5.57,5.57,0,0,1,2.06,7.6A5.5,5.5,0,0,1,89.1,252.15Z" transform="translate(0 167.65)" style="fill:#b5e3df;opacity:0.5400000214576721;isolation:isolate"/><path d="M86.33,241.54l.64,3.2s1.51,2,1.87,2.4a1.88,1.88,0,0,1,.31.43,3.25,3.25,0,0,1,.18.43.49.49,0,0,1-.27.48,2.8,2.8,0,0,1-.56.32,1.34,1.34,0,0,1-.78-.18c-.27-.19-1-.81-1-.81L85,246.22a.69.69,0,0,1-.25-.59v-.15a3.63,3.63,0,0,1,.1-.45v-.46l-.29-2.92Z" transform="translate(0 167.65)" style="fill:#fca372"/><path d="M78.93,240l.17,2.46L76.61,245a.77.77,0,0,0-.19.28l-.19.43a.57.57,0,0,0,.27.48l.37.19a.49.49,0,0,0,.41,0l1.36-.79,2.15-1.36c.17-.14.58-.29.56-.52v-.49a1.37,1.37,0,0,0-.08-.6l-.12-.66-.39-2.5Z" transform="translate(0 167.65)" style="fill:#fca372"/><path d="M81.41,243.46a1.89,1.89,0,0,0-.13-.78l-.13-.36v.08a.63.63,0,0,1-.34.56l-2.42,1.51a.4.4,0,0,1-.55-.17.43.43,0,0,1,0-.35l.81-1-.08.05-.15.13-1.8,1.93a1.85,1.85,0,0,0-.25.37,1.72,1.72,0,0,0-.19.44.77.77,0,0,0,.34.59,1.17,1.17,0,0,0,.27.15.66.66,0,0,0,.44,0,11.86,11.86,0,0,0,1.41-.75l2.28-1.45c.18-.14.51-.38.49-.61A1.3,1.3,0,0,0,81.41,243.46Z" transform="translate(0 167.65)" style="fill:#203443"/><path d="M84.66,245.9a1.8,1.8,0,0,1,0-.8l.12-.35v.08a1.13,1.13,0,0,0,.37.64l2.41,1.67a.38.38,0,0,0,.53-.09.36.36,0,0,0,0-.37l-.92-1.53.21.22.21.21,1.56,1.89a4.85,4.85,0,0,1,.29.49,1.28,1.28,0,0,1,.14.43c0,.21-.23.39-.39.49a1.45,1.45,0,0,1-.6.25,2.38,2.38,0,0,1-.7-.11,4.19,4.19,0,0,1-.81-.59c-.49-.43-2-1.66-2-1.66a1.41,1.41,0,0,1-.47-.53C84.65,246.13,84.65,246,84.66,245.9Z" transform="translate(0 167.65)" style="fill:#203443"/><path d="M80.83,218l-.48,12.2.77,10.44c.08,1-.48,1.46-2,1.35a1.89,1.89,0,0,1-.21-.09c-.5-.22-.44-.6-.5-1.17l-1-10L75.67,218Z" transform="translate(0 167.65)" style="fill:#070b3b"/><path d="M85.1,218l.37,13.58,1.44,11c0,1.42-.7,1.45-1.75,1.22l-.21-.09c-.51-.22-.52-.42-.58-1l-1.69-10.92L80,218Z" transform="translate(0 167.65)" style="fill:#070b3b"/><path d="M77.39,202.16c1.85-.37,6.44,1.12,8.16,1.74s-1.61,5.41-1.71,8.75,1.47,3.93,1.71,5.72c.15,1.14.12,1.5-.37,1.9s-1.35,1.3-3.88.67-2.06-.21-3.86-1-3.11-.9-2.13-3a12.64,12.64,0,0,0,.87-4.25c.1-2.73-.79-4.83-.68-7.58C75.58,203,76.21,202.41,77.39,202.16Z" transform="translate(0 167.65)" style="fill:#ffd131"/><path d="M79.74,200.51l-.1,2.11c0,.63-.28,2.54.26,2.84a1.3,1.3,0,0,0,.32.14c.59.11,1.57-2.36,1.57-3v-2.1Z" transform="translate(0 167.65)" style="fill:#fca372"/><path d="M83.62,197.09a23.2,23.2,0,0,1,0,3.12c-.1.82-.65,2.23-2.15,2s-2-.82-2.23-1.27-1.08-3.15,0-4.73c0,0,.39-1.08,2.08-.93C83.19,195.5,83.54,196.28,83.62,197.09Z" transform="translate(0 167.65)" style="fill:#fca372"/><path d="M66,195.84Z" transform="translate(0 167.65)"/><polygon points="68.91 377.5 66.58 377.11 65.95 376.63 64.96 376.47 64.85 376.72 64.48 376.9 64.56 377.43 64.74 378.39 65.3 378.69 66.59 378.63 68.48 379 68.91 377.5" style="fill:#fca372"/><path d="M77.34,202.55a1.32,1.32,0,0,0-1.57.85c-.72,1.64-2.5,6.46-2.5,6.46l-5.42-.43.28,2.13L73.79,213a1.79,1.79,0,0,0,1.84-1.18s2.43-5.51,3.1-7.4C79,203.75,78,202.74,77.34,202.55Z" transform="translate(0 167.65)" style="fill:#ffd131"/><polygon points="66.26 375.81 63.82 375.61 65.8 379.4 67.59 379.77 67.11 378.7 66.26 375.81" style="fill:#005386"/><polygon points="64.48 376.89 64.9 376.86 65.18 376.95 65.51 377.12 65.57 377.44 65.45 377.5 65.44 377.6 65.41 377.79 65.4 377.89 65.38 378.4 65.26 378.51 64.74 378.39 64.47 377.36 64.48 376.89" style="fill:#fca372"/><path d="M81.78,202.28a3.09,3.09,0,0,0,0,.43c0,.21.18.06.3.1.81.25,2.66.91,2.16.19a1.69,1.69,0,0,1,.06-1.9c.42-.37.21-1.13.15-1.65s.07-1.27-.16-1.55a2.42,2.42,0,0,1-.36-1.31c0-.56-.33-.7-1.11-1.63a1.24,1.24,0,0,0-1.73-.21c-1.57-.29-2.22.91-2.7,2.14s-.09,1.49-.3,2.81-.83,1.37-.86,2.1.67.32,1.17,1.11a1.27,1.27,0,0,0,1.18.71c.82-.69.63-.53.77-1s-.58-.88-.31-1.26-.26-1.14-.41-1.82a1.22,1.22,0,0,1,.72-1.44c.9-.27.41-1.12.67-1.62a.81.81,0,0,1,.74-.48c.73,0,1,.71,1.11,1.18s.4,0,.61.77a1.17,1.17,0,0,1,.2.75v.35a9.5,9.5,0,0,1-.09,1.31,2.83,2.83,0,0,1-.21.7,2.9,2.9,0,0,1-.62.86A1.66,1.66,0,0,1,81.78,202.28Z" transform="translate(0 167.65)" style="fill:#070b3b"/><rect x="74.19" y="214.08" width="2.97" height="0.32" transform="translate(-149.36 350.48) rotate(-62.6)" style="fill:#231f20"/><polygon points="75.14 383.29 74.76 383.63 74.85 383.14 75.14 383.29" style="fill:#8c797e"/><path d="M76.22,212.85s0,.08.12.12.15.06.16,0,0-.08-.11-.12S76.24,212.82,76.22,212.85Z" transform="translate(0 167.65)" style="fill:#8c797e"/><polygon points="79.59 381.71 77.19 381.88 76.13 381.45 75.93 381.51 75.88 381.53 75.57 381.62 75.01 381.79 74.96 381.86 75.09 382.83 75.91 383.44 76.92 383.61 77.92 383.23 79.99 383.06 79.59 381.71" style="fill:#fca372"/><path d="M85.1,203.83c-.79,0-1.35,1.12-1.35,2,0,1.92.5,7.19.5,7.19l-6.15,1,.53,1.65s5.69.51,7.1-.22a1.8,1.8,0,0,0,1.16-1.28,38.61,38.61,0,0,0-.06-5.89c0-.86-.19-2-.22-2.84A1.63,1.63,0,0,0,85.1,203.83Z" transform="translate(0 167.65)" style="fill:#ffd131"/><path d="M92.1,329.58l24-14.3L103,307.52,79.1,321.77a.78.78,0,0,0-.27,1.07.87.87,0,0,0,.27.27l11,6.47A2,2,0,0,0,92.1,329.58Z" transform="translate(0 167.65)" style="fill:#b5e3df;opacity:0.5400000214576721;isolation:isolate"/><polygon points="97.91 460.2 110.71 467.58 125.08 459.3 112.29 451.93 97.91 460.2" style="fill:#b5e3df"/><polygon points="101.8 460.07 110.93 465.34 121.19 459.43 112.06 454.17 101.8 460.07" style="fill:#506c75"/><polygon points="97.91 460.2 110.71 467.58 110.71 485.64 97.91 478.26 97.91 460.2" style="fill:#2d6375"/><polygon points="110.71 467.58 125.08 459.3 125.08 477.36 110.71 485.64 110.71 467.58" style="fill:#4aa4c2"/><polygon points="112.29 433.87 125.08 441.24 125.08 459.3 112.29 451.93 112.29 433.87" style="opacity:0.30000001192092896;isolation:isolate;fill:url(#a2bf385a-858e-42f2-af5d-b1c1806bfe85)"/><polygon points="123.64 462.46 112.15 469.08 112.15 472.09 123.64 465.47 123.64 462.46" style="fill:#061e43"/><polygon points="119.39 465.53 112.74 469.36 112.74 470.17 119.39 466.34 119.39 465.53" style="fill:#005486"/><polygon points="119.39 466.69 112.74 470.52 112.74 471.33 119.39 467.5 119.39 466.69" style="fill:#005486"/><g style="opacity:0.4000000059604645"><polygon points="119.39 465.53 112.74 469.36 112.74 470.17 119.39 466.34 119.39 465.53" style="fill:url(#add919f3-bb16-4361-9b0b-e62b9339174d)"/><polygon points="119.39 466.69 112.74 470.52 112.74 471.33 119.39 467.5 119.39 466.69" style="fill:url(#e98fee2c-d158-43d2-9169-a27a4b7cc5fb)"/></g><polygon points="123.64 466.35 112.15 472.97 112.15 475.99 123.64 469.36 123.64 466.35" style="fill:#061e43"/><polygon points="123.64 470.24 112.15 476.86 112.15 479.88 123.64 473.25 123.64 470.24" style="fill:#061e43"/><polygon points="123.64 474.13 112.15 480.75 112.15 483.77 123.64 477.15 123.64 474.13" style="fill:#061e43"/><polygon points="122.79 463.52 122.79 463.91 123.22 463.67 123.22 463.28 122.79 463.52" style="fill:#41b3a7"/><polygon points="122.15 463.93 122.15 464.32 122.57 464.07 122.57 463.69 122.15 463.93" style="fill:#98d0e1"/><polygon points="121.51 464.32 121.51 464.71 121.93 464.47 121.93 464.08 121.51 464.32" style="fill:#ffd131"/><polygon points="119.39 469.39 112.74 473.22 112.74 474.03 119.39 470.2 119.39 469.39" style="fill:#005486"/><polygon points="119.39 470.55 112.74 474.38 112.74 475.19 119.39 471.36 119.39 470.55" style="fill:#005486"/><polygon points="122.79 467.38 122.79 467.77 123.22 467.53 123.22 467.14 122.79 467.38" style="fill:#41b3a7"/><polygon points="122.15 467.79 122.15 468.18 122.57 467.94 122.57 467.55 122.15 467.79" style="fill:#98d0e1"/><polygon points="121.51 468.18 121.51 468.57 121.93 468.33 121.93 467.94 121.51 468.18" style="fill:#ffd131"/><polygon points="119.39 473.28 112.74 477.11 112.74 477.93 119.39 474.1 119.39 473.28" style="fill:#005486"/><polygon points="119.39 474.44 112.74 478.27 112.74 479.08 119.39 475.25 119.39 474.44" style="fill:#005486"/><polygon points="122.79 471.27 122.79 471.67 123.22 471.42 123.22 471.03 122.79 471.27" style="fill:#41b3a7"/><polygon points="122.15 471.68 122.15 472.07 122.57 471.83 122.57 471.44 122.15 471.68" style="fill:#98d0e1"/><polygon points="121.51 472.07 121.51 472.46 121.93 472.22 121.93 471.83 121.51 472.07" style="fill:#ffd131"/><polygon points="119.39 477.12 112.74 480.94 112.74 481.76 119.39 477.93 119.39 477.12" style="fill:#005486"/><polygon points="119.39 478.27 112.74 482.11 112.74 482.92 119.39 479.09 119.39 478.27" style="fill:#005486"/><g style="opacity:0.30000001192092896"><polygon points="119.39 469.39 112.74 473.22 112.74 474.03 119.39 470.2 119.39 469.39" style="fill:url(#f314e26b-73f0-465d-a602-078e77423d40)"/><polygon points="119.39 470.55 112.74 474.38 112.74 475.19 119.39 471.36 119.39 470.55" style="fill:url(#a1f4b52f-f72e-40f3-92e9-1183142ca6e4)"/></g><g style="opacity:0.30000001192092896"><polygon points="119.39 473.28 112.74 477.11 112.74 477.93 119.39 474.1 119.39 473.28" style="fill:url(#b8f028ba-edb9-4ba1-8f55-453952be3fe4)"/><polygon points="119.39 474.44 112.74 478.27 112.74 479.08 119.39 475.25 119.39 474.44" style="fill:url(#ef256ad1-e213-47c7-b952-30ae14b0ea87)"/></g><polygon points="119.39 477.12 112.74 480.94 112.74 481.76 119.39 477.93 119.39 477.12" style="opacity:0.30000001192092896;isolation:isolate;fill:url(#ab9beeef-8ece-4d0f-8ff9-6bdb47909ccf)"/><polygon points="119.39 478.27 112.74 482.11 112.74 482.92 119.39 479.09 119.39 478.27" style="opacity:0.30000001192092896;isolation:isolate;fill:url(#b9a471be-11c8-4fa6-bbb0-5ad52c2130d3)"/><polygon points="122.79 475.11 122.79 475.5 123.22 475.25 123.22 474.87 122.79 475.11" style="fill:#41b3a7"/><polygon points="122.15 475.52 122.15 475.91 122.57 475.66 122.57 475.27 122.15 475.52" style="fill:#98d0e1"/><polygon points="121.51 475.91 121.51 476.3 121.93 476.05 121.93 475.66 121.51 475.91" style="fill:#ffd131"/><polygon points="110.71 449.52 125.08 441.24 125.08 459.3 110.71 467.58 110.71 449.52" style="fill:url(#f8016f59-dc85-40fb-950b-9d98829b6ba9)"/><polygon points="97.91 442.15 112.29 433.87 112.29 451.93 97.91 460.2 97.91 442.15" style="opacity:0.5;isolation:isolate;fill:url(#abe016a5-e090-40e5-bbc2-c093fe986b37)"/><polygon points="97.91 442.15 110.71 449.52 110.71 467.58 97.91 460.2 97.91 442.15" style="opacity:0.699999988079071;isolation:isolate;fill:url(#a1e08ae3-ab07-4917-883b-d469cef3bcfc)"/><path d="M219.35,335.41l23.75-14.16L230,313.49,206.19,327.7a.83.83,0,0,0-.3,1.12.86.86,0,0,0,.3.3l10.74,6.34A2.36,2.36,0,0,0,219.35,335.41Z" transform="translate(0 167.65)" style="fill:#b5e3df;opacity:0.5400000214576721;isolation:isolate"/><polygon points="224.98 466.17 237.77 473.55 252.14 465.27 239.35 457.89 224.98 466.17" style="fill:#b5e3df"/><polygon points="228.86 466.04 237.99 471.31 248.25 465.4 239.12 460.13 228.86 466.04" style="fill:#506c75"/><polygon points="224.98 466.17 237.77 473.55 237.77 491.61 224.98 484.23 224.98 466.17" style="fill:#2d6375"/><polygon points="237.77 473.55 252.14 465.27 252.14 483.33 237.77 491.61 237.77 473.55" style="fill:#4aa4c2"/><polygon points="239.35 439.8 252.14 447.18 252.14 465.23 239.35 457.86 239.35 439.8" style="opacity:0.30000001192092896;isolation:isolate;fill:url(#b11e9b55-194e-4e75-adcc-f1bdde97d1fc)"/><polygon points="250.7 468.42 239.21 475.04 239.21 478.06 250.7 471.44 250.7 468.42" style="fill:#061e43"/><polygon points="246.45 471.49 239.8 475.32 239.8 476.14 246.45 472.31 246.45 471.49" style="fill:#005486"/><polygon points="246.45 472.65 239.8 476.48 239.8 477.3 246.45 473.47 246.45 472.65" style="fill:#005486"/><g style="opacity:0.4000000059604645"><polygon points="246.45 471.49 239.8 475.32 239.8 476.14 246.45 472.31 246.45 471.49" style="fill:url(#bdb0761b-b5fc-445a-bb15-3b5d8a4717fc)"/><polygon points="246.45 472.65 239.8 476.48 239.8 477.3 246.45 473.47 246.45 472.65" style="fill:url(#f13dac58-af76-45d0-bc35-6da883b78448)"/></g><polygon points="250.7 472.31 239.21 478.94 239.21 481.95 250.7 475.33 250.7 472.31" style="fill:#061e43"/><polygon points="250.7 476.2 239.21 482.83 239.21 485.84 250.7 479.22 250.7 476.2" style="fill:#061e43"/><polygon points="250.7 480.1 239.21 486.72 239.21 489.73 250.7 483.11 250.7 480.1" style="fill:#061e43"/><polygon points="249.85 469.49 249.85 469.88 250.28 469.63 250.28 469.25 249.85 469.49" style="fill:#41b3a7"/><polygon points="249.21 469.9 249.21 470.29 249.64 470.04 249.64 469.65 249.21 469.9" style="fill:#98d0e1"/><polygon points="248.57 470.29 248.57 470.68 248.99 470.43 248.99 470.04 248.57 470.29" style="fill:#ffd131"/><polygon points="246.45 475.36 239.8 479.19 239.8 480 246.45 476.17 246.45 475.36" style="fill:#005486"/><polygon points="246.45 476.51 239.8 480.34 239.8 481.16 246.45 477.33 246.45 476.51" style="fill:#005486"/><polygon points="249.85 473.35 249.85 473.74 250.28 473.5 250.28 473.11 249.85 473.35" style="fill:#41b3a7"/><polygon points="249.21 473.76 249.21 474.15 249.64 473.9 249.64 473.51 249.21 473.76" style="fill:#98d0e1"/><polygon points="248.57 474.15 248.57 474.54 248.99 474.29 248.99 473.9 248.57 474.15" style="fill:#ffd131"/><polygon points="246.45 479.25 239.8 483.08 239.8 483.89 246.45 480.06 246.45 479.25" style="fill:#005486"/><polygon points="246.45 480.41 239.8 484.24 239.8 485.05 246.45 481.22 246.45 480.41" style="fill:#005486"/><polygon points="249.85 477.24 249.85 477.63 250.28 477.39 250.28 477 249.85 477.24" style="fill:#41b3a7"/><polygon points="249.21 477.65 249.21 478.04 249.64 477.79 249.64 477.4 249.21 477.65" style="fill:#98d0e1"/><polygon points="248.57 478.04 248.57 478.43 248.99 478.18 248.99 477.8 248.57 478.04" style="fill:#ffd131"/><polygon points="246.45 483.08 239.8 486.91 239.8 487.73 246.45 483.9 246.45 483.08" style="fill:#005486"/><polygon points="246.45 484.24 239.8 488.07 239.8 488.89 246.45 485.06 246.45 484.24" style="fill:#005486"/><g style="opacity:0.30000001192092896"><polygon points="246.45 475.36 239.8 479.19 239.8 480 246.45 476.17 246.45 475.36" style="fill:url(#a5b3b4f6-2e56-4db5-b816-781aaa433b3a)"/><polygon points="246.45 476.51 239.8 480.34 239.8 481.16 246.45 477.33 246.45 476.51" style="fill:url(#b893c929-051b-4059-857e-babf44ca15f2)"/></g><g style="opacity:0.30000001192092896"><polygon points="246.45 479.25 239.8 483.08 239.8 483.89 246.45 480.06 246.45 479.25" style="fill:url(#b169f3d6-d1a9-4d11-af48-b738c55f42d3)"/><polygon points="246.45 480.41 239.8 484.24 239.8 485.05 246.45 481.22 246.45 480.41" style="fill:url(#a5278d1f-db24-4864-a5b3-6acd08c2d716)"/></g><polygon points="246.45 483.08 239.8 486.91 239.8 487.73 246.45 483.9 246.45 483.08" style="opacity:0.30000001192092896;isolation:isolate;fill:url(#e88bfc81-e309-4664-9193-2afa625d05e6)"/><polygon points="246.45 484.24 239.8 488.07 239.8 488.89 246.45 485.06 246.45 484.24" style="opacity:0.30000001192092896;isolation:isolate;fill:url(#fea20cb0-c4d3-4a70-bd2c-1e4f0188f75d)"/><polygon points="249.85 481.08 249.85 481.47 250.28 481.22 250.28 480.83 249.85 481.08" style="fill:#41b3a7"/><polygon points="249.21 481.48 249.21 481.87 249.64 481.63 249.64 481.24 249.21 481.48" style="fill:#98d0e1"/><polygon points="248.57 481.87 248.57 482.26 248.99 482.02 248.99 481.63 248.57 481.87" style="fill:#ffd131"/><polygon points="237.77 455.45 252.14 447.18 252.14 465.23 237.77 473.51 237.77 455.45" style="fill:url(#e28eefd0-fa8c-445b-9f04-112ae2707674)"/><polygon points="224.98 448.08 239.35 439.8 239.35 457.86 224.98 466.14 224.98 448.08" style="opacity:0.5;isolation:isolate;fill:url(#b9b73d2d-f3df-4037-a9a7-c04ce390e791)"/><polygon points="224.98 448.08 237.77 455.45 237.77 473.51 224.98 466.14 224.98 448.08" style="opacity:0.699999988079071;isolation:isolate;fill:url(#bb1500cc-b47d-45dc-9a68-4d87005e08dc)"/><g style="opacity:0.5400000214576721"><path d="M324.1,306.55,307.8,316a5,5,0,0,1-4.95,0l-62.33-36.33a3.8,3.8,0,0,1,0-6.57L256.24,264a5.33,5.33,0,0,1,5.35,0l62.51,36.41a3.53,3.53,0,0,1,1.33,4.81A3.4,3.4,0,0,1,324.1,306.55Z" transform="translate(0 167.65)" style="fill:#b5e3df"/></g><path d="M.39,281.41,33.5,301a2.6,2.6,0,0,0,2.64,0l37.92-22L38.53,258,.39,280.08a.75.75,0,0,0-.29,1A.7.7,0,0,0,.39,281.41Z" transform="translate(0 167.65)" style="fill:#b5e3df;opacity:0.5400000214576721;isolation:isolate"/><polygon points="4.81 442.45 4.85 442.49 4.85 442.42 4.81 442.45" style="fill:#22b573;opacity:0.10000000149011612;isolation:isolate"/><path d="M61.38,193.88l-1.17-.69h0a.72.72,0,0,0-.75,0L4,225.19a.72.72,0,0,0-.37.63v47.06a.72.72,0,0,0,.34.61H4l1.15.66.51-1L5.55,273l54.6-31.49a.71.71,0,0,0,.36-.63v-46.4Z" transform="translate(0 167.65)" style="fill:#070b3b"/><path d="M61.37,242.19l-55.46,32a.73.73,0,0,1-1-.26.79.79,0,0,1-.1-.37V226.48a.74.74,0,0,1,.37-.64l55.45-32a.73.73,0,0,1,1,.26.69.69,0,0,1,.1.37v47A.75.75,0,0,1,61.37,242.19Z" transform="translate(0 167.65)" style="fill:#061e43"/><polygon points="59.75 408.65 6.77 439.2 6.77 394.25 59.75 363.7 59.75 408.65" style="fill:#b5e3df"/><path d="M97.9,264.77h0v-1.43l-1-.12-.3.37L62.38,243.85a1.29,1.29,0,0,0-1.26,0L7.44,274.77l-.64-.35-1.07.4v1.37h0a.85.85,0,0,0,.44.84l35.1,20.24a1.24,1.24,0,0,0,1.26,0l55-31.64A.86.86,0,0,0,97.9,264.77Z" transform="translate(0 167.65)" style="fill:#070b3b"/><path d="M61.1,242.34,6.16,274a.89.89,0,0,0-.34,1.21.92.92,0,0,0,.34.34l35.1,20.24a1.29,1.29,0,0,0,1.26,0l55-31.64a.9.9,0,0,0,.32-1.23,1,1,0,0,0-.32-.32L62.41,242.34A1.24,1.24,0,0,0,61.1,242.34Z" transform="translate(0 167.65)" style="fill:#071841"/><path d="M61.42,246.41,13.54,274a.48.48,0,0,0-.18.64.45.45,0,0,0,.18.18l15.23,8.78a.8.8,0,0,0,.82,0L77.47,256a.46.46,0,0,0,.18-.64.39.39,0,0,0-.18-.18l-15.23-8.79A.85.85,0,0,0,61.42,246.41Z" transform="translate(0 167.65)" style="fill:#2d6375"/><polygon points="50.87 441.27 63.66 448.65 80.2 439.12 67.41 431.75 50.87 441.27" style="fill:#2d6375"/><path d="M6.78,226.6v7.59c12-6.09,37.3-17.28,53-12.45V196.05Z" transform="translate(0 167.65)" style="fill:#fff;opacity:0.699999988079071;isolation:isolate"/><polygon points="12.69 429.81 12.69 430.39 13.19 430.1 13.19 429.52 13.19 401.9 12.69 402.19 12.69 429.81" style="fill:#144d4c"/><polygon points="53.23 406.19 13.19 429.52 13.19 430.1 53.23 406.77 53.23 406.19" style="fill:#144d4c"/><path d="M13.3,261.61h-.11a.25.25,0,0,1-.11-.33l5.79-12.07H19l5.54-.6c4.51-13.5,4.73-13.43,5-13.32s4.55.39,7.42.59l4.86-6.24,5,.69,6.38-6.77a.25.25,0,0,1,.41.29.12.12,0,0,1,0,.05l-6.55,7-4.93-.68-4.87,6.19H37.1c-1.58-.11-6.44-.46-7.49-.6-.51,1-3,8.28-4.62,13.13v.15l-5.73.62-5.67,11.82A.28.28,0,0,1,13.3,261.61Z" transform="translate(0 167.65)" style="fill:#41b3a7"/><path d="M13.3,261.61h0a.26.26,0,0,1-.19-.29l3.33-16.49,9.45,6.56.69-19.74,9.52,1.76,7.88-.75,1.51-5.41,5.52-8.1a.24.24,0,0,1,.34-.06h0a.24.24,0,0,1,.08.33h0l-5.49,8.07-1.56,5.63-8.29.78h0l-9-1.68-.7,20.07-9.58-6.65-3.25,15.76A.27.27,0,0,1,13.3,261.61Z" transform="translate(0 167.65)" style="fill:#ffd131"/><g style="opacity:0.10000000149011612"><path d="M125.82,359.16l1.36.78a2.53,2.53,0,0,0,2.55,0L172,335.28l-5.24-3-41,23.89a1.74,1.74,0,0,0,0,3Z" transform="translate(0 167.65)" style="fill:#196592"/></g><path d="M176.27,268.35l-1.88-1.1h0a2,2,0,0,0-2,0l-28,16.16a3.2,3.2,0,0,0-1.6,2.77v60.7a2,2,0,0,0,1,1.71h0l1.49,1,.65-1,27.81-16.13a3.2,3.2,0,0,0,1.6-2.77V269.51Z" transform="translate(0 167.65)" style="fill:#070b3b"/><path d="M144.34,287.2v60.7a2,2,0,0,0,3,1.72l28-16.15a3.2,3.2,0,0,0,1.6-2.77V270a2,2,0,0,0-2-2,2,2,0,0,0-1,.27l-28,16.16A3.2,3.2,0,0,0,144.34,287.2Z" transform="translate(0 167.65)" style="fill:#061e43"/><path d="M174.36,271.17a1.12,1.12,0,0,1,.94,1.11v56.44a2.88,2.88,0,0,1-1.44,2.49L147.68,346.3a1.14,1.14,0,0,1-.7.14,1.18,1.18,0,0,1-.81-.22,1.14,1.14,0,0,0,1.53.38l26.55-15.3a2.93,2.93,0,0,0,1.46-2.53V272.29a1.15,1.15,0,0,0-1.16-1.14Z" transform="translate(0 167.65)" style="fill:#2e4d65"/><path d="M173.62,271.3l-26.19,15.11A2.87,2.87,0,0,0,146,288.9v56.71a1.09,1.09,0,0,0,.18.61,1.26,1.26,0,0,0,1.17.2h.09a.87.87,0,0,0,.24-.1l26.18-15.09a2.88,2.88,0,0,0,1.44-2.49V272.28a1.11,1.11,0,0,0-1.11-1.12A1,1,0,0,0,173.62,271.3Z" transform="translate(0 167.65)" style="fill:#b5e3df"/><path d="M173.62,271.3l-26.19,15.11A2.87,2.87,0,0,0,146,288.9v9c7.74-4.11,21.22-9,29.31,1.14v-26.8a1.11,1.11,0,0,0-1.15-1.09A1.24,1.24,0,0,0,173.62,271.3Z" transform="translate(0 167.65)" style="fill:#fff;opacity:0.699999988079071;isolation:isolate"/><path d="M169.24,305.57a13.94,13.94,0,0,1-2.19,7.09l2.53.95a19.91,19.91,0,0,0,3-10,10,10,0,0,0-.3-2.43L169.1,304A7.71,7.71,0,0,1,169.24,305.57Z" transform="translate(0 167.65)" style="fill:#144d4c"/><path d="M169.1,304l2-1.77,1.18-1c-1.19-4.65-5.73-6-11.1-2.94v3.55C165.1,299.63,168.26,300.64,169.1,304Z" transform="translate(0 167.65)" style="fill:#41b3a7"/><path d="M160.24,298.87c.32-.21.64-.42,1-.61h0v3.55h0c-4.35,2.5-7.83,8.24-7.77,12.81a5.1,5.1,0,0,0,1.67,4.09c1.47,1.15,3.75,1.14,6.31-.33a16.29,16.29,0,0,0,5.59-5.72l1.45.55,1.08.4a23.34,23.34,0,0,1-8.08,8.32c-3.54,2-6.73,2.12-8.82.61-1.57-1.13-2.57-3.13-2.57-6C150,310.41,154.48,302.7,160.24,298.87Z" transform="translate(0 167.65)" style="fill:#ffd131"/><polygon points="187.9 500.66 187.66 499.84 188.37 498.67 188.86 497 190.54 496.45 189.99 498.75 190.02 499.74 189.72 500.77 189.16 501.95 188.33 502.1 187.68 501.91 187.9 500.66" style="fill:#f7b6c7"/><path d="M192.25,324.25l-1.51,5.49a1.73,1.73,0,0,1-.49,1,.74.74,0,0,1-.65.06c-.67-.23-1.18-.58-1.15-1.05l.88-6.28-1.76-5.65a1.21,1.21,0,0,1-.22-1.07,2,2,0,0,1,.21-.52,3.52,3.52,0,0,1,.35-.56,1.7,1.7,0,0,1,.39-.27,2.37,2.37,0,0,1,1.25-.72l.26-.06c.38-.09.57-.05.71.32a64.38,64.38,0,0,1,1.58,7A5.63,5.63,0,0,1,192.25,324.25Z" transform="translate(0 167.65)" style="fill:#3d6e73"/><path d="M185.52,364.09a1.09,1.09,0,0,0,0-.36l-.18-.83V360l-2.62-.1v2l-2.45.52a5.26,5.26,0,0,0-1.21.42l-.41.33c-.07.12-.23.24-.23.37s.07.19.32.34l4.89,1a2.18,2.18,0,0,0,1.65-.29Z" transform="translate(0 167.65)" style="fill:#0d0d10"/><path d="M190.88,360.73a2.7,2.7,0,0,0,.07-.63l-.26-.79-.09-2.82h-2.15v2.15l-1.35-.33a1.5,1.5,0,0,0-1.08.29l-.31.26c0,.13-.19.26-.17.39s0,.47.24.57l3.43,1.94a1.61,1.61,0,0,0,1.55-.51Z" transform="translate(0 167.65)" style="fill:#0d0d10"/><path d="M179.69,331.8c.66-2.07,6-.66,8.28-1.31s2.88,0,2.88,0V335a1.05,1.05,0,0,1-.07.43l-.38,9.28.44,13.14c.1,1.2-.34,1.45-2.22,1.38l-.32-.08a1.18,1.18,0,0,1-.45-.89l-1-12.62-.59-7.86-.91.18v10.91l.38,12.15a1.36,1.36,0,0,1-1.44,1.27,1.47,1.47,0,0,1-.46-.11l-.59-.26a1.38,1.38,0,0,1-.83-1.26L179.52,336h0A25.63,25.63,0,0,1,179.69,331.8Z" transform="translate(0 167.65)" style="fill:#070b3b"/><path d="M180.74,316.89s2.9-3.78,7.26-3.67,2.44,6,2.6,11.7,2.1,7.37-1.76,8.84-4.79,2-6.1,1.68-2.3.62-3.22-.67c-.77-1.08-.7-1.18-.43-2.59a76.08,76.08,0,0,0,.11-10.24C179,320.09,179.82,317.47,180.74,316.89Z" transform="translate(0 167.65)" style="fill:#3d6e73"/><path d="M183.1,313l0,2.17a1.58,1.58,0,0,0,1.67,1.43h.12a1.59,1.59,0,0,0,1.44-1.37v-3.37Z" transform="translate(0 167.65)" style="fill:#fca372"/><path d="M183.68,305.57c-.48.07-1.17,0-1.49.44a3.89,3.89,0,0,0-1.3,2.14c-.4,1.49-.57,3.3-.06,4a8.59,8.59,0,0,0,2.8,1.94,3.77,3.77,0,0,0,2.9-2.2c.8-1.74,1.53-3.23,1.18-3.89A3.9,3.9,0,0,0,183.68,305.57Z" transform="translate(0 167.65)" style="fill:#fca372"/><path d="M184.59,312.71c.45.49.68.71,1.6.33a1.5,1.5,0,0,0,1-1.28c.18-.85,1.13-1.92,1-3s-.79-3.81-2.36-3.88-1.74-1.12-2.37-1.13a3.06,3.06,0,0,0-2.77,2.13c-.43,1.61.35,2.18.93,2s.87.86.79,1.56a1.64,1.64,0,0,0,0,.72c0,.22.33.15.33.15a4.51,4.51,0,0,1,.48-.6c.25-.24,1.08-.51,1.07.44s-.4.84-.28,1.51A5.38,5.38,0,0,0,184.59,312.71Z" transform="translate(0 167.65)" style="fill:#070b3b"/><polygon points="169.54 479.48 167.65 477.45 166.96 475.84 166.35 475.16 165.72 474.66 165.73 475.23 165.96 475.45 166.17 475.85 166.01 475.89 165.32 475.12 164.54 474.1 164.27 474.53 165 475.78 165.02 477.39 165.74 478.39 166.63 479.08 168.46 481.04 169.54 479.48" style="fill:#fca372"/><path d="M180.1,317.24c-2.57-.56-6.65-1.5-6.65-1.5l-5-5.34c-.32-.35-1.25.18-1.41.64l-.1.21a1.48,1.48,0,0,0,.16,1.16l4,5.8a4.28,4.28,0,0,0,1.36,1s5.48,2.58,7.09,3.08c.92.29,1.21-1,1.59-1.93l0-.64C181.37,318.89,180.89,317.41,180.1,317.24Z" transform="translate(0 167.65)" style="fill:#3d6e73"/><path d="M309,291.63l-7,4.09a2.86,2.86,0,0,1-2.86,0l-28.29-16.31a1.41,1.41,0,0,1-.52-1.92,1.39,1.39,0,0,1,.52-.53l7.19-4.18a2.11,2.11,0,0,1,2.12,0L309,289.41a1.28,1.28,0,0,1,.48,1.75A1.25,1.25,0,0,1,309,291.63Z" transform="translate(0 167.65)" style="fill:#070b3b"/><path d="M309,290.94,302,295a2.86,2.86,0,0,1-2.86,0l-28.26-16.35a1.41,1.41,0,0,1-.52-1.92,1.39,1.39,0,0,1,.52-.53l7.19-4.18a2.11,2.11,0,0,1,2.12,0l28.84,16.68a1.28,1.28,0,0,1,.44,1.76A1.35,1.35,0,0,1,309,290.94Z" transform="translate(0 167.65)" style="fill:#061e43"/><polygon points="301.27 429.07 301.27 455.65 283.2 445.21 283.2 418.63 301.27 429.07" style="fill:#006286"/><polygon points="299.74 429.94 299.74 456.52 281.68 446.08 281.68 419.5 299.74 429.94" style="fill:#071841"/><polygon points="299.74 456.52 301.27 455.65 301.27 429.07 299.74 429.94 299.74 456.52" style="fill:#33769e"/><polygon points="299.74 456.52 301.27 455.65 301.27 429.07 299.74 429.94 299.74 456.52" style="fill:#070b3b;opacity:0.6000000238418579;isolation:isolate"/><path d="M259,197l3-1.65h0a2.86,2.86,0,0,1,2.21-.31h0a3.33,3.33,0,0,1,.7.29l64.34,37.12a6.45,6.45,0,0,1,3.22,5.59v53.49A2.86,2.86,0,0,1,331,294h0l-2.63,1.61.27-.19a2.82,2.82,0,0,0,1.13-2.29V291l-61.84-36.61a6.46,6.46,0,0,1-3.13-5.46L264,198.59Z" transform="translate(0 167.65)" style="fill:#070b3b"/><path d="M261,258.52l64.41,37.13a2.9,2.9,0,0,0,4-1.06,2.84,2.84,0,0,0,.39-1.45v-53.6a6.44,6.44,0,0,0-3.23-5.58l-64.4-37.13a2.9,2.9,0,0,0-4,1.06,2.94,2.94,0,0,0-.39,1.45v53.59A6.47,6.47,0,0,0,261,258.52Z" transform="translate(0 167.65)" style="fill:#061e43"/><polygon points="260.25 413.5 327.32 452.17 327.32 407.8 260.25 369.13 260.25 413.5" style="fill:#b5e3df"/><g style="opacity:0.9200000166893005"><polygon points="264.06 399.71 264.06 412.64 324.37 447.42 324.37 420.59 315.38 404.16 306.94 411.6 298.49 401.31 290.05 407.41 281.6 400.8 273.16 406.21 264.06 399.71" style="fill:#ffd131"/></g><path d="M260.25,201.48v24.75c13.31.09,43.22,2.92,67.07,24.38V240.15Z" transform="translate(0 167.65)" style="fill:#edf8f1"/><path d="M287.54,325.33a4.47,4.47,0,0,1-.16-.63l.18-.67v-2.91l2.61-.1v2l2.44.51a5.62,5.62,0,0,1,1.21.43l.41.32c.07.12.22.24.22.37s.12.34-.15.45a38.58,38.58,0,0,1-4.87,1,2,2,0,0,1-1.71-.3Z" transform="translate(0 167.65)" style="fill:#002a43"/><path d="M279.1,324.46q0-.31-.06-.63l.25-.79.09-3.11h2.15v2.48L283,322a1.49,1.49,0,0,1,1.08.29l.31.25c.05.14.18.27.16.4s0,.46-.23.57l-3.53,2a1.65,1.65,0,0,1-1.55-.52Z" transform="translate(0 167.65)" style="fill:#002a43"/><path d="M290.53,321.67l-.43-23.54h0a30.39,30.39,0,0,0-.22-3.16c-.65-2.06-6-.65-8.24-1.3s-2.87,0-2.87,0c-.42.09-.84,2.43,0,4.53a2,2,0,0,0,.18.36v11.2l.27,11.45c-.1,1.19.34,1.44,2.21,1.37l.32-.08a1.13,1.13,0,0,0,.45-.88l.64-12.44.35-8.33,1.31.32,2.38,10.76.39,10.1c.06.94.35,1.16,1.46,1.05l1-.15C290.81,322.74,290.53,322.22,290.53,321.67Z" transform="translate(0 167.65)" style="fill:#070b3b"/><path d="M296,283a17,17,0,0,1,.83-1.51l1-1.41v-1.26l-1-1.66-1.91-.48-.35.47-.09.13-.72,1-.17.54,1.28,2.44-.86,1.63,1.84.64Z" transform="translate(0 167.65)" style="fill:#fca372"/><path d="M288.51,278h0l4.4-6a.28.28,0,0,1,.33-.09l6.9,3a.25.25,0,0,1,.13.14h0v.16h0a.21.21,0,0,1,0,.13l-4.41,6a.26.26,0,0,1-.32.08l-6.9-3a.31.31,0,0,1-.15-.23h0Z" transform="translate(0 167.65)" style="fill:#d6ecf3"/><path d="M300.3,275.18l-4.41,6a.26.26,0,0,1-.32.08l-6.9-3a.28.28,0,0,1-.13-.36l0,0,4.4-6a.28.28,0,0,1,.33-.08l6.9,3a.26.26,0,0,1,.15.34Z" transform="translate(0 167.65)" style="fill:#fff"/><polygon points="299.92 442.82 295.78 448.47 288.95 445.49 293.09 439.83 299.92 442.82" style="fill:#b5e3df"/><line x1="293.09" y1="439.83" x2="299.92" y2="442.82" style="fill:none"/><path d="M292.82,275.41l1.83,1.16-2.55,1a1.61,1.61,0,0,0,.59.65h0a3.48,3.48,0,0,0,3.82-.54h0c1.1-.94,1.18-2.22.17-2.85h0A3.5,3.5,0,0,0,292.82,275.41Z" transform="translate(0 167.65)" style="fill:#4a878c"/><path d="M292.39,275.35h0a1.92,1.92,0,0,0-.75,2.21l2.58-1Z" transform="translate(0 167.65)" style="fill:#ffd131"/><polygon points="297.83 447.74 297.32 446.68 296.54 445.89 296.37 446.35 296.74 446.99 296.12 447.75 296.1 449.17 296.87 449.15 297.83 447.74" style="fill:#fca372"/><path d="M286.64,280.49c.37-.69,1.87-1,2.27-.36a49.14,49.14,0,0,1,2.78,6.25s.65-1.12,1.19-2.2a17.48,17.48,0,0,1,1.18-2c.25-.33.32-.08.65,0a15.18,15.18,0,0,1,1.47.62c.29.1.07.31,0,.6a34.22,34.22,0,0,1-2.75,6,1.92,1.92,0,0,1-2.59.8,2.06,2.06,0,0,1-.68-.6l-3.35-5.87A3.12,3.12,0,0,1,286.64,280.49Z" transform="translate(0 167.65)" style="fill:#a8e3f7"/><polygon points="292.44 443.37 291.33 443.38 290.53 443.92 287.85 446.28 288.93 448.02 290.49 446.06 291.54 445.79 292.79 445.18 292.91 444.12 294.29 443.87 294.43 443.4 292.44 443.37" style="fill:#fca372"/><path d="M289.85,278.86c-.14-.41-1.18-1.53-1.56-1.18a18.52,18.52,0,0,0-2.23,2.61l-2,2.52a37.28,37.28,0,0,0-3.28-5.32c-.68-.71-1.65-.25-2.26.52l-.07.12c-.73.92-.41,1.89.34,2.92,1.07,1.46,4.19,5.58,4.19,5.58a2,2,0,0,0,1.79.11l5.09-6.7a.87.87,0,0,0,.16-.73A3.61,3.61,0,0,1,289.85,278.86Z" transform="translate(0 167.65)" style="fill:#a8e3f7"/><path d="M285,296.08l-3.69-.95-2.77-1.35a4.39,4.39,0,0,1-.6-1.47c-.06-1.61.68-3.45.73-5.19.17-5.7-2.62-10,1.72-10.15a14.5,14.5,0,0,1,7.94,2.51c.91.57,1.93,3.83,1.76,5.67-.14,1.65-1.53,3.11.2,8.47.1.3,0,1.36-.5,1.35C288.32,296.71,285.51,296.21,285,296.08Z" transform="translate(0 167.65)" style="fill:#a8e3f7"/><path d="M286,276a.34.34,0,0,1,.22.34l-.15,2a1.6,1.6,0,0,1-1.85,1.28h-.12a1.6,1.6,0,0,1-1.32-1.54l.22-2.64a.32.32,0,0,1,.34-.3l.1,0Z" transform="translate(0 167.65)" style="fill:#fca372"/><path d="M286.9,268.86c.46.19,1.15.31,1.37.8a4,4,0,0,1,.75,2.45c0,1.58-.26,3.42-.93,3.95s-3,1.42-3.26,1.22a4.34,4.34,0,0,1-2.33-2.9c-.36-1.93-.72-3.59-.2-4.15A4,4,0,0,1,286.9,268.86Z" transform="translate(0 167.65)" style="fill:#fca372"/><path d="M287.52,267.07a3.13,3.13,0,0,1,2.21,2.8c0,1.71-.89,2.08-1.41,1.72s-1.07.63-1.18,1.35-.1.5-.18.71-.37.07-.37.07a1.32,1.32,0,0,0-.15-.62c-.19-.29-.45-.31-.7,0a1.08,1.08,0,0,0,0,1.17,1.37,1.37,0,0,1,0,1.12c-.1.29-.58.87-1.06.85a2.71,2.71,0,0,1-1.82-.77c-.82-.6-.91-1.09-.91-1.09s-.8-2.45-.42-3.51,1.73-3.6,3.31-3.27S286.88,266.92,287.52,267.07Z" transform="translate(0 167.65)" style="fill:#fff"/><rect x="258.72" width="470.14" height="352.6" style="fill:none"/><g style="opacity:0.5"><path d="M145.51,59.71a19.23,19.23,0,0,0-2.4-.17c-5,0-10.56,2.45-13.36,7A20.46,20.46,0,0,0,127.54,82c.06,0,.54.74.6.76a36.57,36.57,0,0,1-.45-4.18C127.69,68.33,135.64,59.94,145.51,59.71Z" transform="translate(0 167.65)" style="fill:#a1dbcc;opacity:0.5;isolation:isolate"/></g><g style="opacity:0.5"><path d="M145.49,59.88a21.17,21.17,0,0,0-2.39-.17c-5,0-10.57,2.45-13.37,7a20.42,20.42,0,0,0-2.2,15.5c.06,0,.53.74.59.76a34.44,34.44,0,0,1-.44-4.18C127.68,68.5,135.62,60.11,145.49,59.88Z" transform="translate(0 167.65)" style="fill:#a1dbcc;opacity:0.5;isolation:isolate"/></g><g style="opacity:0.5"><path d="M145.62,59.59a19.23,19.23,0,0,0-2.4-.17c-5,0-10.57,2.44-13.36,7a20.34,20.34,0,0,0-2.21,15.49c.06,0,.53.75.59.76a34.44,34.44,0,0,1-.44-4.18C127.8,68.2,135.74,59.81,145.62,59.59Z" transform="translate(0 167.65)" style="fill:#4a878c;opacity:0.5;isolation:isolate"/></g><g style="opacity:0.5"><path d="M145.4,59.53a19.23,19.23,0,0,0-2.4-.17c-5,0-10.57,2.44-13.36,7a20.34,20.34,0,0,0-2.21,15.49c.06,0,.53.75.59.76a34.44,34.44,0,0,1-.44-4.18C127.58,68.14,135.52,59.75,145.4,59.53Z" transform="translate(0 167.65)" style="fill:#4a878c;opacity:0.5;isolation:isolate"/></g><g style="opacity:0.5"><path d="M145.57,59.53a19.23,19.23,0,0,0-2.4-.17c-5,0-10.57,2.44-13.36,7a20.44,20.44,0,0,0-2.21,15.49c.06,0,.54.75.6.76a34.45,34.45,0,0,1-.45-4.18C127.75,68.14,135.69,59.75,145.57,59.53Z" transform="translate(0 167.65)" style="fill:#4aa4c2;opacity:0.5;isolation:isolate"/></g></g></svg>