<svg id="a8ced5b9-2cd4-4c6b-8ded-aa57c86105fe" data-name="Layer 1" xmlns="http://www.w3.org/2000/svg" viewBox="0 0 614.1 149.4"><path d="M192.6,105.4a2.59,2.59,0,0,0,1,1.1,7.48,7.48,0,0,0,2,.9,29.34,29.34,0,0,0,3.3.9c1.5.4,2.7.8,3.9,1.2a9.36,9.36,0,0,1,2.8,1.6,7.23,7.23,0,0,1,1.7,2.2,7.31,7.31,0,0,1,.6,3,7.82,7.82,0,0,1-.7,3.5,8.6,8.6,0,0,1-2,2.6,8.32,8.32,0,0,1-3.1,1.6,12.45,12.45,0,0,1-4,.6,17.81,17.81,0,0,1-6.1-1.1,16.06,16.06,0,0,1-5.4-3.3l2.9-3.5a17.07,17.07,0,0,0,4.1,2.7,11.59,11.59,0,0,0,4.7.9,6.4,6.4,0,0,0,3.6-.9,2.93,2.93,0,0,0,1.3-2.6,2.77,2.77,0,0,0-.3-1.3,3.13,3.13,0,0,0-.9-1.1,11.39,11.39,0,0,0-1.9-.9,30.92,30.92,0,0,0-3.1-.9,26.64,26.64,0,0,1-3.9-1.1,9,9,0,0,1-2.9-1.6,5.78,5.78,0,0,1-1.8-2.3,8.11,8.11,0,0,1-.6-3.3,7.25,7.25,0,0,1,.7-3.3,7.9,7.9,0,0,1,1.9-2.5,7.21,7.21,0,0,1,3-1.6,11.64,11.64,0,0,1,3.8-.6,16.27,16.27,0,0,1,5.5.9,19.29,19.29,0,0,1,4.6,2.6l-2.6,3.7a18,18,0,0,0-3.8-2.1,9.86,9.86,0,0,0-3.8-.7,4.83,4.83,0,0,0-3.3,1,2.8,2.8,0,0,0-1.2,2.3A2.23,2.23,0,0,0,192.6,105.4Z" style="fill:#fff"/><path d="M248.1,116.1a14.08,14.08,0,0,1-3,4.6,14.9,14.9,0,0,1-4.6,3.1,14,14,0,0,1-5.8,1.1,15.37,15.37,0,0,1-5.8-1.1,13.36,13.36,0,0,1-4.5-3.1,13.66,13.66,0,0,1-3-4.5,14.3,14.3,0,0,1,0-11,14.08,14.08,0,0,1,3-4.6,14.9,14.9,0,0,1,4.6-3.1,14,14,0,0,1,5.8-1.1,15.37,15.37,0,0,1,5.8,1.1,13.36,13.36,0,0,1,4.5,3.1,15.4,15.4,0,0,1,3,4.5,14.59,14.59,0,0,1,1.1,5.5A15,15,0,0,1,248.1,116.1Zm-4.7-9.3a10.75,10.75,0,0,0-1.9-3.1,8.13,8.13,0,0,0-3-2.1,9.43,9.43,0,0,0-7.6,0,8.64,8.64,0,0,0-2.9,2.1,8.94,8.94,0,0,0-1.9,3.1,10.66,10.66,0,0,0,0,7.6,10.75,10.75,0,0,0,1.9,3.1,8.13,8.13,0,0,0,3,2.1,9.43,9.43,0,0,0,7.6,0,7.75,7.75,0,0,0,2.9-2.1,8.94,8.94,0,0,0,1.9-3.1,9.86,9.86,0,0,0,.7-3.8A16,16,0,0,0,243.4,106.8Z" style="fill:#fff"/><path d="M262.9,96.8h4.8V120h14.5v4.4H262.9Z" style="fill:#fff"/><path d="M317.7,112.4a17.08,17.08,0,0,1-.8,5.4,11.7,11.7,0,0,1-2.4,3.9,10.07,10.07,0,0,1-3.7,2.3,15.41,15.41,0,0,1-9.8,0,10.07,10.07,0,0,1-3.7-2.3,11.23,11.23,0,0,1-2.4-3.8,14.42,14.42,0,0,1-.8-5.3V96.8h4.8v15.7c0,2.6.6,4.5,1.9,5.9a6.85,6.85,0,0,0,5.2,2,6.57,6.57,0,0,0,5.1-1.9,8.24,8.24,0,0,0,1.9-5.8V96.8h4.8v15.6Z" style="fill:#fff"/><path d="M343.9,124.4H339V101.3h-8.8V96.8h22.4v4.5h-8.8v23.1Z" style="fill:#fff"/><path d="M370.8,96.8v27.6H366V96.8Z" style="fill:#fff"/><path d="M412.7,116.1a14.08,14.08,0,0,1-3,4.6,14.9,14.9,0,0,1-4.6,3.1,14,14,0,0,1-5.8,1.1,15.37,15.37,0,0,1-5.8-1.1,13.36,13.36,0,0,1-4.5-3.1,13.66,13.66,0,0,1-3-4.5,14.3,14.3,0,0,1,0-11,14.08,14.08,0,0,1,3-4.6,14.9,14.9,0,0,1,4.6-3.1,14,14,0,0,1,5.8-1.1,15.37,15.37,0,0,1,5.8,1.1,13.36,13.36,0,0,1,4.5,3.1,15.4,15.4,0,0,1,3,4.5,14.59,14.59,0,0,1,1.1,5.5A15,15,0,0,1,412.7,116.1Zm-4.7-9.3a10.75,10.75,0,0,0-1.9-3.1,8.13,8.13,0,0,0-3-2.1,9.42,9.42,0,0,0-7.6,0,8.64,8.64,0,0,0-2.9,2.1,8.94,8.94,0,0,0-1.9,3.1,10.66,10.66,0,0,0,0,7.6,10.75,10.75,0,0,0,1.9,3.1,8.13,8.13,0,0,0,3,2.1,9.42,9.42,0,0,0,7.6,0,8.64,8.64,0,0,0,2.9-2.1,8.94,8.94,0,0,0,1.9-3.1,10.66,10.66,0,0,0,0-7.6Z" style="fill:#fff"/><path d="M446.8,96.8h4.8v27.6h-4.1l-15.2-19.7v19.7h-4.8V96.8H432l14.8,19.1V96.8Z" style="fill:#fff"/><path d="M471,105.4a2.59,2.59,0,0,0,1,1.1,7.48,7.48,0,0,0,2,.9,29.34,29.34,0,0,0,3.3.9c1.5.4,2.7.8,3.9,1.2a10.8,10.8,0,0,1,2.8,1.6,7.23,7.23,0,0,1,1.7,2.2,7.31,7.31,0,0,1,.6,3,7.82,7.82,0,0,1-.7,3.5,8.6,8.6,0,0,1-2,2.6,8.32,8.32,0,0,1-3.1,1.6,12.45,12.45,0,0,1-4,.6,17.81,17.81,0,0,1-6.1-1.1,16.06,16.06,0,0,1-5.4-3.3l2.9-3.5a17.07,17.07,0,0,0,4.1,2.7,11.59,11.59,0,0,0,4.7.9,6.4,6.4,0,0,0,3.6-.9,2.93,2.93,0,0,0,1.3-2.6,2.77,2.77,0,0,0-.3-1.3,2.59,2.59,0,0,0-1-1.1,11.39,11.39,0,0,0-1.9-.9,30.92,30.92,0,0,0-3.1-.9,26.64,26.64,0,0,1-3.9-1.1,9,9,0,0,1-2.9-1.6,5.78,5.78,0,0,1-1.8-2.3,8.11,8.11,0,0,1-.6-3.3,7.25,7.25,0,0,1,.7-3.3,7.9,7.9,0,0,1,1.9-2.5,7.21,7.21,0,0,1,3-1.6,11.64,11.64,0,0,1,3.8-.6,16.27,16.27,0,0,1,5.5.9,19.29,19.29,0,0,1,4.6,2.6l-2.6,3.7a18,18,0,0,0-3.8-2.1,9.86,9.86,0,0,0-3.8-.7,4.83,4.83,0,0,0-3.3,1,2.8,2.8,0,0,0-1.2,2.3A1.69,1.69,0,0,0,471,105.4Z" style="fill:#fff"/><path d="M359.1,46.2a6.5,6.5,0,0,0,2,2.5,15.6,15.6,0,0,0,3.9,2,44.26,44.26,0,0,0,6.4,1.7c5.3,1.2,9.2,2.8,11.7,4.9a10.72,10.72,0,0,1,3.8,8.6,13.09,13.09,0,0,1-1.2,5.6,12.7,12.7,0,0,1-3.3,4.3,13.82,13.82,0,0,1-5.1,2.7,22.69,22.69,0,0,1-6.5.9,28.74,28.74,0,0,1-10.4-1.8,29.52,29.52,0,0,1-9-5.7l3.3-3.9a27.23,27.23,0,0,0,7.5,5,21.43,21.43,0,0,0,8.7,1.7c3.2,0,5.8-.7,7.7-2.2a7.25,7.25,0,0,0,2.9-5.9,9.43,9.43,0,0,0-.5-3,6.14,6.14,0,0,0-1.9-2.4,14.76,14.76,0,0,0-3.8-2,42.69,42.69,0,0,0-6.1-1.7,63.18,63.18,0,0,1-7.1-2,18.18,18.18,0,0,1-5-2.8,9.68,9.68,0,0,1-2.9-3.8,13.45,13.45,0,0,1-.9-5.2,12.74,12.74,0,0,1,1.1-5.2,14.2,14.2,0,0,1,3.2-4.1,13.74,13.74,0,0,1,4.9-2.7,17.92,17.92,0,0,1,6.2-1,27.62,27.62,0,0,1,9.1,1.4,28.45,28.45,0,0,1,7.5,4.3l-3.1,4.1a22,22,0,0,0-6.7-3.9,21,21,0,0,0-7-1.2,14.21,14.21,0,0,0-4.2.6,13.67,13.67,0,0,0-3.2,1.6,6.44,6.44,0,0,0-2,2.4,6.7,6.7,0,0,0-.7,3.1A12.9,12.9,0,0,0,359.1,46.2Z" style="fill:#fff"/><path d="M414.6,78.7h-5.3V36.3H393.4V31.4h37.2v4.9H414.7V78.7Z" style="fill:#fff"/><path d="M473.2,78.7,459.5,60.3H446V78.7h-5.3V31.3H461a22.57,22.57,0,0,1,7.1,1,15.55,15.55,0,0,1,5.4,2.9,14,14,0,0,1,3.5,4.5,13.68,13.68,0,0,1,1.2,5.8,14.35,14.35,0,0,1-.9,5.3,11.28,11.28,0,0,1-2.7,4.1,15.18,15.18,0,0,1-4.1,2.9,17.84,17.84,0,0,1-5.1,1.6L480,78.7Zm-3.6-39.9c-2.1-1.7-5.1-2.5-9-2.5H446V55.6h14.6a15.28,15.28,0,0,0,4.9-.7,14.16,14.16,0,0,0,3.9-1.9,8.38,8.38,0,0,0,2.5-3.1,9.15,9.15,0,0,0,.9-4.1A8.25,8.25,0,0,0,469.6,38.8Z" style="fill:#fff"/><path d="M523.8,36.2H494.9V52.4h25.9v4.9H494.9V73.9h29.2v4.9H489.5V31.3h34.3Z" style="fill:#fff"/><path d="M569.2,36.2H540.3V52.4h25.9v4.9H540.3V73.9h29.2v4.9H534.9V31.3h34.3Z" style="fill:#fff"/><path d="M598.1,78.7h-5.3V36.3H576.9V31.4h37.2v4.9H598.2V78.7Z" style="fill:#fff"/><path d="M211.4,31.3h9L200.7,79h-7.3L173.7,31.3h9.2l14.3,36.4Z" style="fill:#fff"/><path d="M237.2,31.3V78.7H229V31.3Z" style="fill:#fff"/><path d="M283,31.3h8.3V78.7h-7L258.2,45V78.7h-8.3V31.3h7.7L283,64.1Z" style="fill:#fff"/><path d="M338.5,38.8H311.7V51h23.8v7.5H311.7V71.2h27.1v7.5H303.4V31.3h35.1v7.5Z" style="fill:#fff"/><path d="M83.3,2.7l-2.5,6L78,15.5l-29,70L28.7,37.3a60.59,60.59,0,0,0-7,10.8L44.1,99.5h9.6L88.9,17.1l2.7-6.4L95,2.8H83.3Z" style="fill:#fff"/><path d="M22.1,21.7l-2.9-6.8L15.9,7.1H3.9l7.2,16.6L14.2,31l4,9.2a66.05,66.05,0,0,1,7.5-9.9Z" style="fill:#fff"/><path d="M117.8,99.8q-7.65-6.3-23.7-9.9a97,97,0,0,1-13-3.5,29.67,29.67,0,0,1-8-4.1,15.21,15.21,0,0,1-2.8-2.9L65.5,90.7A38.4,38.4,0,0,0,75.2,96a97.06,97.06,0,0,0,14.4,4.1,102.28,102.28,0,0,1,12.5,3.4,25.41,25.41,0,0,1,7.6,4,13.64,13.64,0,0,1,3.9,4.9,16.58,16.58,0,0,1,1.1,6.1,14.46,14.46,0,0,1-5.8,12q-5.85,4.5-15.6,4.5a42.68,42.68,0,0,1-17.7-3.4,57.06,57.06,0,0,1-15.2-10.2l-6.7,8a59.78,59.78,0,0,0,18.2,11.5H72a64.28,64.28,0,0,1-20.2-4.1,65.61,65.61,0,0,0,17.6,10.5,63.68,63.68,0,0,0,6.6,2.1,73.35,73.35,0,0,0,29.7-6.6c.1,0,.3-.1.4-.1a29.85,29.85,0,0,0,10.3-5.5c.6-.5,1.1-1,1.7-1.5h0a24.7,24.7,0,0,0,7.5-18.3v-.1C125.5,109.8,122.9,104,117.8,99.8ZM107.3,48.7a54.43,54.43,0,0,0-18.5-2.9c-1.4,0-2.8.1-4.2.2L80.1,56.7h0a27.49,27.49,0,0,1,8.4-1.2A40.07,40.07,0,0,1,102.7,58a47.92,47.92,0,0,1,13.5,8l6.3-8.4A53,53,0,0,0,107.3,48.7Z" style="fill:#fff"/><path d="M117.8,99.8q-7.65-6.3-23.7-9.9a97,97,0,0,1-13-3.5,29.67,29.67,0,0,1-8-4.1,15.21,15.21,0,0,1-2.8-2.9L65.5,90.7A38.4,38.4,0,0,0,75.2,96a97.06,97.06,0,0,0,14.4,4.1,102.28,102.28,0,0,1,12.5,3.4,25.41,25.41,0,0,1,7.6,4,13.64,13.64,0,0,1,3.9,4.9,16.58,16.58,0,0,1,1.1,6.1,14.46,14.46,0,0,1-5.8,12q-5.85,4.5-15.6,4.5a42.68,42.68,0,0,1-17.7-3.4,57.06,57.06,0,0,1-15.2-10.2l-6.7,8a59.78,59.78,0,0,0,18.2,11.5H72a56.31,56.31,0,0,0,20.9,3.7,43.52,43.52,0,0,0,12.8-1.8c.1,0,.3-.1.4-.1a29.85,29.85,0,0,0,10.3-5.5c.6-.5,1.1-1,1.7-1.5h0a24.7,24.7,0,0,0,7.5-18.3v-.1C125.5,109.8,122.9,104,117.8,99.8ZM107.3,48.7a54.43,54.43,0,0,0-18.5-2.9c-1.4,0-2.8.1-4.2.2L80.1,56.7h0a27.49,27.49,0,0,1,8.4-1.2A40.07,40.07,0,0,1,102.7,58a47.92,47.92,0,0,1,13.5,8l6.3-8.4A53,53,0,0,0,107.3,48.7Z" style="fill:#fff"/><path d="M149.5,74.7A74.78,74.78,0,0,0,95,2.8h-.1A61,61,0,0,0,84.4.7L80.9,8.8a64.19,64.19,0,0,1,10.8,1.9A66.16,66.16,0,0,1,131.4,109a36.1,36.1,0,0,1,1,8.2,33.13,33.13,0,0,1-.4,5.5A74.21,74.21,0,0,0,149.5,74.7ZM74.7,141a28.1,28.1,0,0,1-2.9-.1,64.28,64.28,0,0,1-20.2-4.1A66.29,66.29,0,0,1,72.4,8.5L75.6,0h-.9A74.48,74.48,0,0,0,22.1,21.7a69.65,69.65,0,0,0-7.9,9.2A74.69,74.69,0,0,0,74.7,149.4h1.1a73.35,73.35,0,0,0,29.7-6.6,79.67,79.67,0,0,0,12.4-7.1h0a24.7,24.7,0,0,0,7.5-18.3A66,66,0,0,1,74.7,141Z" style="fill:#fff"/></svg>